<svg width="24" height="25" viewBox="0 0 24 25" fill="none" xmlns="http://www.w3.org/2000/svg">
<path fill-rule="evenodd" clip-rule="evenodd" d="M11.25 2.5C11.25 2.30109 11.329 2.11032 11.4697 1.96967C11.6103 1.82902 11.8011 1.75 12 1.75C17.937 1.75 22.75 6.563 22.75 12.5C22.75 18.437 17.937 23.25 12 23.25C6.063 23.25 1.25 18.437 1.25 12.5C1.25 12.3011 1.32902 12.1103 1.46967 11.9697C1.61032 11.829 1.80109 11.75 2 11.75C2.19891 11.75 2.38968 11.829 2.53033 11.9697C2.67098 12.1103 2.75 12.3011 2.75 12.5C2.75 14.3295 3.2925 16.1179 4.30891 17.639C5.32531 19.1602 6.76996 20.3458 8.46018 21.0459C10.1504 21.746 12.0103 21.9292 13.8046 21.5723C15.5989 21.2154 17.2471 20.3344 18.5407 19.0407C19.8344 17.7471 20.7154 16.0989 21.0723 14.3046C21.4292 12.5103 21.246 10.6504 20.5459 8.96018C19.8458 7.26996 18.6602 5.82531 17.139 4.80891C15.6179 3.7925 13.8295 3.25 12 3.25C11.8011 3.25 11.6103 3.17098 11.4697 3.03033C11.329 2.88968 11.25 2.69891 11.25 2.5ZM12 8.75C12.1989 8.75 12.3897 8.82902 12.5303 8.96967C12.671 9.11032 12.75 9.30109 12.75 9.5V12.75H16C16.1989 12.75 16.3897 12.829 16.5303 12.9697C16.671 13.1103 16.75 13.3011 16.75 13.5C16.75 13.6989 16.671 13.8897 16.5303 14.0303C16.3897 14.171 16.1989 14.25 16 14.25H12C11.8011 14.25 11.6103 14.171 11.4697 14.0303C11.329 13.8897 11.25 13.6989 11.25 13.5V9.5C11.25 9.30109 11.329 9.11032 11.4697 8.96967C11.6103 8.82902 11.8011 8.75 12 8.75ZM9.1 2.898C9.13549 2.98992 9.15252 3.08794 9.15012 3.18644C9.14772 3.28495 9.12593 3.38202 9.08599 3.4721C9.04606 3.56218 8.98877 3.64351 8.91739 3.71144C8.84601 3.77937 8.76195 3.83257 8.67 3.868C8.5286 3.9222 8.38855 3.97988 8.25 4.041C8.15939 4.08553 8.06073 4.1113 7.95992 4.11678C7.85911 4.12226 7.75823 4.10733 7.66333 4.07289C7.56843 4.03844 7.48146 3.98519 7.40763 3.91633C7.3338 3.84746 7.27464 3.7644 7.23369 3.67212C7.19273 3.57984 7.17083 3.48024 7.1693 3.3793C7.16776 3.27835 7.18662 3.17813 7.22475 3.08465C7.26288 2.99117 7.31949 2.90634 7.39118 2.83527C7.46288 2.76419 7.54819 2.70832 7.642 2.671C7.802 2.599 7.965 2.531 8.13 2.468C8.22192 2.43251 8.31994 2.41548 8.41844 2.41788C8.51695 2.42028 8.61402 2.44207 8.7041 2.48201C8.79418 2.52194 8.87551 2.57923 8.94344 2.65061C9.01137 2.72199 9.06457 2.80605 9.1 2.898ZM5.648 4.74C5.78506 4.88404 5.85931 5.07661 5.85443 5.27538C5.84956 5.47415 5.76595 5.66285 5.622 5.8C5.51239 5.9047 5.40536 6.01207 5.301 6.122C5.16375 6.26615 4.97486 6.34986 4.77588 6.35474C4.57691 6.35962 4.38415 6.28525 4.24 6.148C4.09585 6.01075 4.01214 5.82186 4.00726 5.62288C4.00238 5.42391 4.07675 5.23115 4.214 5.087C4.336 4.96 4.46 4.836 4.587 4.714C4.73104 4.57694 4.92361 4.50269 5.12238 4.50757C5.32115 4.51244 5.51085 4.59605 5.648 4.74ZM3.16 7.761C3.25003 7.80098 3.3313 7.8583 3.39917 7.92969C3.46705 8.00108 3.52019 8.08515 3.55557 8.17708C3.59095 8.26901 3.60787 8.36701 3.60537 8.46549C3.60287 8.56396 3.581 8.66098 3.541 8.751C3.48 8.889 3.421 9.029 3.367 9.17C3.29225 9.35109 3.14961 9.49575 2.96958 9.57303C2.78955 9.65031 2.58643 9.65408 2.40366 9.58353C2.22089 9.51299 2.07298 9.37372 1.99156 9.19553C1.91015 9.01733 1.90169 8.81435 1.968 8.63C2.031 8.465 2.098 8.303 2.17 8.142C2.20998 8.05197 2.2673 7.9707 2.33869 7.90283C2.41008 7.83495 2.49415 7.78181 2.58608 7.74643C2.67801 7.71105 2.77601 7.69413 2.87449 7.69663C2.97296 7.69913 3.06998 7.721 3.16 7.761Z" fill="#777777"/>
</svg>
