<svg width="25" height="25" viewBox="0 0 25 25" fill="none" xmlns="http://www.w3.org/2000/svg">
<path d="M2.25 11.5C2.25 8.20017 2.25 6.55025 3.27513 5.52513C4.30025 4.5 5.95017 4.5 9.25 4.5H10.25C13.5498 4.5 15.1997 4.5 16.2249 5.52513C17.25 6.55025 17.25 8.20017 17.25 11.5V13.5C17.25 16.7998 17.25 18.4497 16.2249 19.4749C15.1997 20.5 13.5498 20.5 10.25 20.5H9.25C5.95017 20.5 4.30025 20.5 3.27513 19.4749C2.25 18.4497 2.25 16.7998 2.25 13.5V11.5Z" stroke="#BF1017" stroke-width="1.5"/>
<path d="M17.25 9.40585L17.3759 9.30196C19.4917 7.55623 20.5496 6.68336 21.3998 7.10482C22.25 7.52628 22.25 8.92355 22.25 11.7181V13.2819C22.25 16.0765 22.25 17.4737 21.3998 17.8952C20.5496 18.3166 19.4917 17.4438 17.3759 15.698L17.25 15.5941" stroke="#BF1017" stroke-width="1.5" stroke-linecap="round"/>
<path d="M11.75 11.5C12.5784 11.5 13.25 10.8284 13.25 10C13.25 9.17157 12.5784 8.5 11.75 8.5C10.9216 8.5 10.25 9.17157 10.25 10C10.25 10.8284 10.9216 11.5 11.75 11.5Z" stroke="#BF1017" stroke-width="1.5"/>
</svg>
