<svg width="14" height="16" viewBox="0 0 14 16" fill="none" xmlns="http://www.w3.org/2000/svg">
<path d="M8 5.91096C8.00037 6.28014 7.85407 6.63435 7.59328 6.89566C7.33249 7.15697 6.97857 7.30398 6.60939 7.30435C6.24021 7.30472 5.886 7.15841 5.62469 6.89762C5.36338 6.63683 5.21637 6.28292 5.216 5.91374C5.21582 5.73094 5.25164 5.54989 5.32143 5.38094C5.39121 5.21198 5.49359 5.05843 5.62272 4.92904C5.88351 4.66773 6.23743 4.52072 6.60661 4.52035C6.97579 4.51998 7.33 4.66628 7.59131 4.92707C7.85262 5.18786 7.99963 5.54178 8 5.91096ZM9.04348 8.56557V8.94122C9.04348 9.696 8.00696 10.2609 6.6087 10.2609C5.21044 10.2609 4.17391 9.6953 4.17391 8.94191V8.56557C4.17364 8.49151 4.18797 8.41813 4.21607 8.34961C4.24418 8.2811 4.28552 8.2188 4.33772 8.16627C4.38993 8.11374 4.45197 8.07202 4.52031 8.04349C4.58865 8.01496 4.66194 8.00018 4.736 8H8.48139C8.55545 8.00018 8.62874 8.01496 8.69708 8.04349C8.76542 8.07202 8.82747 8.11374 8.87967 8.16627C8.93188 8.2188 8.97321 8.2811 9.00132 8.34961C9.02943 8.41813 9.04375 8.49151 9.04348 8.56557ZM2.26087 0C1.66125 0 1.08619 0.238198 0.662193 0.662193C0.238198 1.08619 0 1.66125 0 2.26087V13.7391C0 14.3388 0.238198 14.9138 0.662193 15.3378C1.08619 15.7618 1.66125 16 2.26087 16H12.6957C12.834 16 12.9667 15.945 13.0646 15.8472C13.1624 15.7493 13.2174 15.6166 13.2174 15.4783C13.2174 15.3399 13.1624 15.2072 13.0646 15.1093C12.9667 15.0115 12.834 14.9565 12.6957 14.9565H2.26087C1.96814 14.9565 1.68521 14.851 1.46392 14.6594C1.24264 14.4677 1.09782 14.2028 1.056 13.913H12.6957C12.834 13.913 12.9667 13.8581 13.0646 13.7602C13.1624 13.6624 13.2174 13.5297 13.2174 13.3913V2.26087C13.2174 1.66125 12.9792 1.08619 12.5552 0.662193C12.1312 0.238198 11.5561 0 10.9565 0H2.26087ZM12.1739 2.26087V12.8696H1.04348V2.26087C1.04348 1.58887 1.58887 1.04348 2.26087 1.04348H10.9565C11.6285 1.04348 12.1739 1.58887 12.1739 2.26087Z" fill="black"/>
</svg>
