<svg width="18" height="20" viewBox="0 0 18 20" fill="none" xmlns="http://www.w3.org/2000/svg">
<path opacity="0.7" fill-rule="evenodd" clip-rule="evenodd" d="M7.89488 0.0519444C6.85531 0.241881 6.09532 0.628553 5.33793 1.35294C4.59893 2.0597 4.15267 2.83652 3.94117 3.78445C3.84226 4.22762 3.81976 5.12827 3.89612 5.58793C4.14231 7.07022 5.08909 8.36879 6.45137 9.09256C7.25368 9.51881 8.24721 9.70757 9.18573 9.61208C10.392 9.48935 11.3173 9.05665 12.1654 8.21867C13.0081 7.38617 13.4597 6.44931 13.5758 5.29335C13.7202 3.85541 13.262 2.54195 12.2474 1.48536C11.5031 0.710217 10.5726 0.220899 9.52315 0.052765C9.08634 -0.0172549 8.27572 -0.0176456 7.89488 0.0519444ZM9.67731 1.30304C10.3163 1.46309 10.9127 1.81854 11.4006 2.32997C11.8245 2.77432 12.0723 3.19397 12.2526 3.77245C12.3514 4.08965 12.3599 4.17003 12.3615 4.80036C12.3633 5.53823 12.3166 5.79537 12.0886 6.30485C11.7519 7.05702 10.9527 7.83415 10.1841 8.15674C9.65172 8.3802 9.46007 8.41318 8.70561 8.41111C8.06992 8.40935 7.98516 8.40064 7.66522 8.30401C7.09699 8.1324 6.66825 7.88608 6.21321 7.46983C5.35695 6.68664 4.947 5.59668 5.06766 4.42447C5.15704 3.55657 5.45171 2.94167 6.09247 2.28625C6.72987 1.63419 7.42797 1.3012 8.38923 1.19063C8.67034 1.15831 9.32905 1.21579 9.67731 1.30304ZM4.25981 9.68647C3.68312 9.77509 3.09069 10.0025 2.62718 10.3133C1.88478 10.8109 1.1921 11.8894 0.833198 13.1064C0.536429 14.1129 0.377247 15.4286 0.410626 16.6002C0.427473 17.1927 0.444163 17.3308 0.535084 17.6307C0.852774 18.6788 1.53443 19.4067 2.53681 19.7681C3.19711 20.0062 3.02788 20 8.84403 20C14.6645 20 14.4904 20.0064 15.1554 19.7666C16.1664 19.4021 16.8933 18.6206 17.1738 17.597C17.2432 17.3435 17.2629 17.1408 17.2778 16.525C17.3109 15.1572 17.1022 13.7275 16.7126 12.6542C16.5505 12.2076 16.1553 11.4669 15.902 11.1348C15.2202 10.241 14.276 9.74161 13.1143 9.66022C12.7935 9.63771 12.7337 9.64478 12.5211 9.73035C12.3911 9.78267 12.0291 9.98925 11.7167 10.1894C10.6324 10.8841 9.79631 11.1694 8.84403 11.1694C7.90164 11.1694 7.06899 10.887 5.99656 10.204C5.21533 9.70636 5.14244 9.67358 4.79035 9.66108C4.62721 9.65529 4.38846 9.66674 4.25981 9.68647ZM5.37514 11.2227C6.1141 11.6873 6.51219 11.8844 7.08303 12.0681C7.75084 12.283 8.19346 12.3552 8.84403 12.3552C9.50682 12.3552 9.93955 12.2852 10.599 12.0712C11.2005 11.8761 11.6244 11.6663 12.3398 11.2096L12.909 10.8463L13.1962 10.8702C13.9329 10.9317 14.578 11.3207 15.021 11.9704C15.6472 12.8888 15.9739 14.0979 16.0676 15.8444C16.1291 16.9899 16.0562 17.4278 15.7238 17.9095C15.3822 18.4048 14.8262 18.7095 14.1171 18.7901C13.8663 18.8186 12.1005 18.8278 8.60674 18.8187C3.89719 18.8064 3.44448 18.7996 3.21538 18.7381C2.49106 18.5438 1.985 18.1135 1.7534 17.4951C1.61162 17.1164 1.582 16.7378 1.62527 15.8581C1.69491 14.4433 1.94205 13.3191 2.3683 12.4783C2.81199 11.6031 3.34106 11.139 4.12673 10.9356C4.66605 10.796 4.71426 10.8071 5.37514 11.2227Z" fill="black"/>
</svg>
