<svg width="20" height="20" viewBox="0 0 20 20" fill="none" xmlns="http://www.w3.org/2000/svg">
<path d="M10.0013 18.334C6.66219 18.334 4.99263 18.334 3.9553 17.2357C2.91797 16.1373 2.91797 14.3695 2.91797 10.834C2.91797 7.29845 2.91797 5.53068 3.9553 4.43233C4.99263 3.33398 6.66219 3.33398 10.0013 3.33398C13.3404 3.33398 15.01 3.33398 16.0473 4.43233C17.0846 5.53068 17.0846 7.29845 17.0846 10.834C17.0846 14.3695 17.0846 16.1373 16.0473 17.2357C15.01 18.334 13.3404 18.334 10.0013 18.334Z" stroke="#141B34" stroke-width="1.25" stroke-linecap="round" stroke-linejoin="round"/>
<path d="M6.66797 3.33268V1.66602" stroke="#141B34" stroke-width="1.25" stroke-linecap="round"/>
<path d="M13.332 3.33268V1.66602" stroke="#141B34" stroke-width="1.25" stroke-linecap="round"/>
<path d="M11.6848 7.91075C11.6848 8.83124 10.9386 9.57741 10.0182 9.57741C9.09773 9.57741 8.35156 8.83124 8.35156 7.91075C8.35156 6.99031 9.09773 6.24414 10.0182 6.24414C10.9386 6.24414 11.6848 6.99031 11.6848 7.91075Z" stroke="#141B34" stroke-width="1.25" stroke-linecap="round" stroke-linejoin="round"/>
<path d="M6.72045 13.93C7.60241 12.5723 9.00297 12.0635 10.0164 12.0645C11.0297 12.0655 12.3893 12.5723 13.2712 13.93C13.3282 14.0179 13.344 14.126 13.2925 14.2172C13.0862 14.583 12.4458 15.3087 11.9833 15.358C11.4518 15.4145 10.0616 15.4224 10.0175 15.4226C9.9733 15.4224 8.54014 15.4145 8.00839 15.358C7.54584 15.3087 6.90543 14.583 6.69918 14.2172C6.64772 14.126 6.66343 14.0179 6.72045 13.93Z" stroke="#141B34" stroke-width="1.25" stroke-linecap="round" stroke-linejoin="round"/>
</svg>
