<svg width="16" height="16" viewBox="0 0 16 16" fill="none" xmlns="http://www.w3.org/2000/svg">
<path d="M10.9486 3.07006L11.6086 2.41007C12.1554 1.86331 13.0419 1.86331 13.5886 2.41007C14.1354 2.95683 14.1354 3.84329 13.5886 4.39005L12.9286 5.05004M10.9486 3.07006L6.50908 7.5096C6.17074 7.848 5.93072 8.27187 5.81468 8.73607L5.33203 10.6667L7.26263 10.184C7.72683 10.068 8.1507 9.82793 8.4891 9.4896L12.9286 5.05004M10.9486 3.07006L12.9286 5.05004" stroke="#BF1017" stroke-width="1.25" stroke-linejoin="round"/>
<path d="M12.6666 9.00065C12.6666 11.1923 12.6666 12.2881 12.0613 13.0257C11.9505 13.1607 11.8267 13.2845 11.6917 13.3953C10.9541 14.0007 9.85827 14.0007 7.6666 14.0007H7.33333C4.81917 14.0007 3.56211 14.0007 2.78106 13.2196C2.00002 12.4386 2 11.1815 2 8.66732V8.33398C2 6.14233 2 5.04651 2.60529 4.30894C2.71611 4.17392 2.83993 4.0501 2.97496 3.93928C3.71253 3.33398 4.80835 3.33398 7 3.33398" stroke="#BF1017" stroke-width="1.25" stroke-linecap="round" stroke-linejoin="round"/>
</svg>
