<svg width="18" height="18" viewBox="0 0 18 18" fill="none" xmlns="http://www.w3.org/2000/svg">
<path d="M9.00127 13.8145C9.1678 13.8145 9.32751 13.7483 9.44527 13.6305C9.56302 13.5128 9.62918 13.3531 9.62918 13.1865V8.16329C9.62918 7.99676 9.56302 7.83705 9.44527 7.71929C9.32751 7.60154 9.1678 7.53538 9.00127 7.53538C8.83474 7.53538 8.67503 7.60154 8.55727 7.71929C8.43952 7.83705 8.37336 7.99676 8.37336 8.16329V13.1865C8.37336 13.5332 8.65467 13.8145 9.00127 13.8145ZM9.00127 4.81445C9.22331 4.81445 9.43626 4.90266 9.59327 5.05967C9.75027 5.21667 9.83848 5.42962 9.83848 5.65166C9.83848 5.8737 9.75027 6.08665 9.59327 6.24366C9.43626 6.40067 9.22331 6.48887 9.00127 6.48887C8.77923 6.48887 8.56628 6.40067 8.40928 6.24366C8.25227 6.08665 8.16406 5.8737 8.16406 5.65166C8.16406 5.42962 8.25227 5.21667 8.40928 5.05967C8.56628 4.90266 8.77923 4.81445 9.00127 4.81445Z" fill="black"/>
<path fill-rule="evenodd" clip-rule="evenodd" d="M0 9C0 4.02949 4.02949 0 9 0C13.9705 0 18 4.02949 18 9C18 13.9705 13.9705 18 9 18C4.02949 18 0 13.9705 0 9ZM9 1.25581C6.94611 1.25581 4.97635 2.07172 3.52403 3.52403C2.07172 4.97635 1.25581 6.94611 1.25581 9C1.25581 11.0539 2.07172 13.0236 3.52403 14.476C4.97635 15.9283 6.94611 16.7442 9 16.7442C11.0539 16.7442 13.0236 15.9283 14.476 14.476C15.9283 13.0236 16.7442 11.0539 16.7442 9C16.7442 6.94611 15.9283 4.97635 14.476 3.52403C13.0236 2.07172 11.0539 1.25581 9 1.25581Z" fill="black"/>
</svg>
