<svg width="16" height="16" viewBox="0 0 16 16" fill="none" xmlns="http://www.w3.org/2000/svg">
<path d="M4.18988e-07 7.99868C-0.000391226 6.78849 0.273786 5.59397 0.801889 4.50508C1.32999 3.41619 2.09825 2.4613 3.04883 1.71231C3.99941 0.963324 5.10753 0.439761 6.28974 0.181042C7.47196 -0.0776759 8.69747 -0.0648061 9.874 0.218683C9.96128 0.239403 10.0414 0.283223 10.1059 0.34555C10.1704 0.407878 10.217 0.486415 10.2407 0.572929C10.2644 0.659443 10.2644 0.750747 10.2407 0.837268C10.217 0.923788 10.1705 1.00234 10.106 1.06468C9.84776 1.31597 9.66217 1.63233 9.56881 1.98035C9.47546 2.32838 9.47781 2.69515 9.57563 3.04195C9.67344 3.38874 9.86308 3.70269 10.1245 3.95065C10.386 4.1986 10.7095 4.37136 11.061 4.45068C11.1855 4.47861 11.2968 4.54809 11.3766 4.64769C11.4564 4.74728 11.4999 4.87107 11.5 4.99868C11.4999 5.40536 11.6238 5.8024 11.8551 6.13688C12.0864 6.47135 12.4142 6.72735 12.7948 6.87075C13.1753 7.01415 13.5905 7.03813 13.9851 6.9395C14.3796 6.84086 14.7347 6.6243 15.003 6.31868C15.065 6.24795 15.1456 6.19613 15.2357 6.16917C15.3258 6.14221 15.4217 6.1412 15.5123 6.16626C15.603 6.19132 15.6847 6.24144 15.7481 6.31085C15.8116 6.38026 15.8542 6.46616 15.871 6.55868C16.0697 7.65152 16.0386 8.77375 15.7797 9.85391C15.5209 10.9341 15.0399 11.9485 14.3675 12.8326C13.6951 13.7167 12.8459 14.451 11.8741 14.9889C10.9023 15.5268 9.82908 15.8564 8.72288 15.9568C7.61668 16.0572 6.5017 15.9261 5.44894 15.5719C4.39618 15.2177 3.42872 14.6481 2.60815 13.8995C1.78759 13.1509 1.13191 12.2396 0.682875 11.2237C0.233835 10.2077 0.00127352 9.10943 4.18988e-07 7.99868ZM5 5.99868C5 5.73347 4.89464 5.47911 4.70711 5.29158C4.51957 5.10404 4.26522 4.99868 4 4.99868C3.73478 4.99868 3.48043 5.10404 3.29289 5.29158C3.10536 5.47911 3 5.73347 3 5.99868C3 6.2639 3.10536 6.51825 3.29289 6.70579C3.48043 6.89333 3.73478 6.99868 4 6.99868C4.26522 6.99868 4.51957 6.89333 4.70711 6.70579C4.89464 6.51825 5 6.2639 5 5.99868ZM8 8.99868C8.26522 8.99868 8.51957 8.89333 8.70711 8.70579C8.89464 8.51825 9 8.2639 9 7.99868C9 7.73347 8.89464 7.47911 8.70711 7.29158C8.51957 7.10404 8.26522 6.99868 8 6.99868C7.73478 6.99868 7.48043 7.10404 7.29289 7.29158C7.10536 7.47911 7 7.73347 7 7.99868C7 8.2639 7.10536 8.51825 7.29289 8.70579C7.48043 8.89333 7.73478 8.99868 8 8.99868ZM11 11.9987C11 11.7335 10.8946 11.4791 10.7071 11.2916C10.5196 11.104 10.2652 10.9987 10 10.9987C9.73478 10.9987 9.48043 11.104 9.29289 11.2916C9.10536 11.4791 9 11.7335 9 11.9987C9 12.2639 9.10536 12.5183 9.29289 12.7058C9.48043 12.8933 9.73478 12.9987 10 12.9987C10.2652 12.9987 10.5196 12.8933 10.7071 12.7058C10.8946 12.5183 11 12.2639 11 11.9987ZM5 11.9987C5.26522 11.9987 5.51957 11.8933 5.70711 11.7058C5.89464 11.5183 6 11.2639 6 10.9987C6 10.7335 5.89464 10.4791 5.70711 10.2916C5.51957 10.104 5.26522 9.99868 5 9.99868C4.73478 9.99868 4.48043 10.104 4.29289 10.2916C4.10536 10.4791 4 10.7335 4 10.9987C4 11.2639 4.10536 11.5183 4.29289 11.7058C4.48043 11.8933 4.73478 11.9987 5 11.9987Z" fill="black"/>
</svg>
