<svg width="25" height="24" viewBox="0 0 25 24" fill="none" xmlns="http://www.w3.org/2000/svg">
<path d="M14.1827 8.59C14.1827 9.01169 14.015 9.41612 13.7166 9.7143C13.4181 10.0125 13.0134 10.18 12.5913 10.18C12.1693 10.18 11.7645 10.0125 11.4661 9.7143C11.1677 9.41612 11 9.01169 11 8.59C11 8.16831 11.1677 7.76388 11.4661 7.4657C11.7645 7.16752 12.1693 7 12.5913 7C13.0134 7 13.4181 7.16752 13.7166 7.4657C14.015 7.76388 14.1827 8.16831 14.1827 8.59Z" stroke="#BF1017" stroke-width="2" stroke-linejoin="round"/>
<path d="M18.5 9C18.5 12.3142 16.3182 16.0909 12.5 20.4545C8.68182 16.0909 6.5 12.3142 6.5 9C6.5 7.4087 7.13214 5.88258 8.25736 4.75736C9.38258 3.63214 10.9087 3 12.5 3C14.0913 3 15.6174 3.63214 16.7426 4.75736C17.8679 5.88258 18.5 7.4087 18.5 9Z" stroke="#BF1017" stroke-width="2" stroke-linejoin="round"/>
</svg>
