<svg width="18" height="18" viewBox="0 0 18 18" fill="none" xmlns="http://www.w3.org/2000/svg">
<path d="M17.2563 13.7031L4.29701 0.743965C3.56285 0.0113089 2.51222 -0.200164 1.55382 0.198785C0.595433 0.595484 0 1.48562 0 2.52349V14.5279C0 16.4424 1.55757 18 3.47211 18H15.4768C16.5139 18 17.4055 17.4046 17.8022 16.4469C18.1989 15.4886 17.9897 14.4365 17.2563 13.7031ZM17.1093 16.159C16.8903 16.6862 16.3474 17.2493 15.4768 17.2493H3.47211C1.97153 17.2493 0.749915 16.0285 0.749915 14.5272V2.52349C0.749915 1.65285 1.3131 1.10917 1.84104 0.890946C2.04277 0.807707 2.28199 0.752964 2.53471 0.752964C2.94267 0.752964 3.38662 0.893946 3.76757 1.2734L5.7181 3.2239L4.09829 4.84369C3.95205 4.98992 3.95205 5.22764 4.09829 5.37387C4.17178 5.44736 4.26777 5.48336 4.36376 5.48336C4.45975 5.48336 4.55574 5.44661 4.62923 5.37387L6.24904 3.75408L7.87861 5.38362L6.25879 7.00341C6.11256 7.14964 6.11256 7.38736 6.25879 7.53359C6.33228 7.60708 6.42827 7.64308 6.52426 7.64308C6.62025 7.64308 6.71624 7.60633 6.78973 7.53359L8.40955 5.9138L10.0009 7.5051L8.38105 9.12489C8.23482 9.27112 8.23482 9.50884 8.38105 9.65507C8.45455 9.72856 8.55053 9.76456 8.64652 9.76456C8.74251 9.76456 8.8385 9.72781 8.91199 9.65507L10.5318 8.03528L12.1224 9.62582L10.5026 11.2456C10.3563 11.3918 10.3563 11.6296 10.5026 11.7758C10.5761 11.8493 10.672 11.8853 10.768 11.8853C10.864 11.8853 10.96 11.8485 11.0335 11.7758L12.6533 10.156L14.2439 11.7466L12.6241 13.3663C12.4778 13.5126 12.4778 13.7503 12.6241 13.8965C12.6976 13.97 12.7936 14.006 12.8895 14.006C12.9855 14.006 13.0815 13.9693 13.155 13.8965L14.7748 12.2767L16.7306 14.2325C17.3463 14.8482 17.332 15.6311 17.1138 16.1582L17.1093 16.159ZM5.13992 9.10539C5.03268 8.99815 4.8722 8.96741 4.73122 9.0244C4.59098 9.08214 4.49949 9.21938 4.49949 9.37086V13.1204C4.49949 13.3273 4.66747 13.4953 4.87445 13.4953H8.62403C8.77551 13.4953 8.91274 13.4038 8.97049 13.2636C9.02898 13.1234 8.99673 12.9621 8.8895 12.8549L5.13992 9.10539ZM5.24941 12.7454V10.276L7.71888 12.7454H5.24941Z" fill="#BF1017"/>
</svg>
