<svg width="18" height="18" viewBox="0 0 18 18" fill="none" xmlns="http://www.w3.org/2000/svg">
<path d="M17.4375 9.76132C17.0107 9.27758 16.3957 9.00008 15.7507 9.00008H1.50006V3.36163C1.50006 2.73088 1.78508 2.10689 2.31985 1.77164C3.13664 1.2594 4.13418 1.51139 4.6502 2.19989L4.84446 2.45864L4.48219 4.53687C4.43869 4.78737 4.49044 5.04536 4.6277 5.25911C4.94646 5.75561 5.61999 5.87711 6.09176 5.52311L8.79638 3.49513C9.22165 3.17638 9.3289 2.58238 9.04164 2.13464L9.03189 2.11889C8.85413 1.84139 8.55187 1.66739 8.2226 1.65239L6.04301 1.55564L5.9125 1.38165C5.41898 0.723901 4.7177 0.225155 3.91067 0.0654067C1.83008 -0.34634 0 1.24215 0 3.24988C0 3.24988 0.00300013 7.53234 0.00450019 9.19208C0.00450019 9.62407 0.0322514 10.0508 0.0855037 10.4798C0.161257 11.0866 0.263261 11.9048 0.263261 11.9048C0.451519 13.4085 1.18055 14.73 2.2396 15.6825L1.89683 17.07C1.79708 17.472 2.04234 17.8785 2.44436 17.9783C2.50511 17.9932 2.56511 18 2.62511 18C2.96188 18 3.26789 17.7713 3.35264 17.43L3.5604 16.5893C4.39219 17.0123 5.33048 17.25 6.31752 17.25H11.8805C12.7978 17.25 13.6731 17.0453 14.4606 16.6763L14.6474 17.43C14.7314 17.7713 15.0381 18 15.3749 18C15.4349 18 15.4949 17.9925 15.5557 17.9783C15.9577 17.8785 16.2029 17.472 16.1032 17.07L15.7957 15.825C16.9432 14.8635 17.739 13.485 17.9363 11.9056L17.9828 11.5298C18.0623 10.8893 17.8643 10.2458 17.4368 9.76207L17.4375 9.76132ZM16.4947 11.3431L16.4482 11.7188C16.1609 14.0168 14.1974 15.75 11.8813 15.75H6.31827C4.00217 15.75 2.03934 14.0168 1.75208 11.7188L1.59982 10.5001H15.7507C15.9689 10.5001 16.1692 10.5901 16.3132 10.7536C16.4572 10.9178 16.5217 11.1263 16.4947 11.3431Z" fill="#BF1017"/>
</svg>
