<svg width="21" height="21" viewBox="0 0 21 21" fill="none" xmlns="http://www.w3.org/2000/svg">
<path d="M2.7048 13.4505C2.75047 13.2861 2.64999 13.0577 2.55408 12.8933C2.52476 12.8443 2.49274 12.7971 2.45817 12.7517C1.63776 11.5326 1.19892 10.0968 1.19759 8.62741C1.18389 4.41635 4.73726 1 9.13101 1C12.963 1 16.1601 3.60793 16.9091 7.06995C17.0212 7.58308 17.0778 8.10675 17.0781 8.63197C17.0781 12.8476 13.6618 16.3553 9.26803 16.3553C8.56923 16.3553 7.62836 16.1452 7.11226 16.0036C6.59615 15.862 6.08461 15.6748 5.95216 15.6245C5.81639 15.5733 5.6725 15.547 5.5274 15.5469C5.36908 15.5463 5.21224 15.5773 5.0661 15.6382L2.47644 16.5563C2.41967 16.5803 2.35963 16.5957 2.29831 16.6019C2.20141 16.6019 2.10847 16.5634 2.03995 16.4949C1.97142 16.4264 1.93293 16.3334 1.93293 16.2365C1.93611 16.1947 1.94377 16.1534 1.95576 16.1132L2.7048 13.4505Z" stroke="#3D3D3D" stroke-width="1.5" stroke-miterlimit="10" stroke-linecap="round"/>
<path d="M19.3561 9.4043C19.9551 10.4805 20.2449 11.7013 20.1934 12.9319C20.1419 14.1625 19.7511 15.3549 19.0642 16.3772C18.9587 16.5366 18.8993 16.6599 18.9176 16.7426C18.9359 16.8253 19.4625 19.5684 19.4625 19.5684C19.4752 19.6326 19.4703 19.699 19.4486 19.7607C19.4268 19.8224 19.3889 19.8771 19.3387 19.9192C19.2718 19.9725 19.1886 20.0012 19.103 20.0005C19.0573 20.0006 19.0121 19.9913 18.9701 19.9731L16.4028 18.9682C16.2262 18.8986 16.029 18.9019 15.8548 18.9774C14.9897 19.3144 14.0333 19.5255 13.0765 19.5255C11.7925 19.5268 10.531 19.1882 9.42034 18.5439" stroke="#3D3D3D" stroke-width="1.5" stroke-miterlimit="10" stroke-linecap="round"/>
</svg>
