<svg width="17" height="20" viewBox="0 0 17 20" fill="none" xmlns="http://www.w3.org/2000/svg">
<path fill-rule="evenodd" clip-rule="evenodd" d="M7.50791 0.0519444C6.46835 0.241881 5.70835 0.628553 4.95097 1.35294C4.21197 2.0597 3.76571 2.83652 3.55421 3.78445C3.4553 4.22762 3.43279 5.12827 3.50916 5.58793C3.75535 7.07022 4.70213 8.36879 6.0644 9.09255C6.86672 9.51881 7.86025 9.70757 8.79876 9.61208C10.005 9.48935 10.9303 9.05665 11.7785 8.21867C12.6211 7.38617 13.0728 6.44931 13.1888 5.29335C13.3332 3.85541 12.875 2.54195 11.8604 1.48536C11.1161 0.710217 10.1856 0.220899 9.13619 0.052765C8.69938 -0.0172549 7.88876 -0.0176456 7.50791 0.0519444ZM9.29035 1.30304C9.92929 1.46309 10.5258 1.81854 11.0136 2.32997C11.4375 2.77432 11.6853 3.19397 11.8656 3.77245C11.9644 4.08965 11.973 4.17003 11.9745 4.80036C11.9763 5.53823 11.9297 5.79537 11.7016 6.30485C11.365 7.05702 10.5657 7.83415 9.79716 8.15674C9.26476 8.3802 9.07311 8.41318 8.31865 8.41111C7.68295 8.40935 7.5982 8.40064 7.27826 8.30401C6.71003 8.1324 6.28129 7.88608 5.82625 7.46983C4.96999 6.68664 4.56003 5.59668 4.68069 4.42447C4.77007 3.55657 5.06475 2.94167 5.70551 2.28625C6.3429 1.63419 7.04101 1.3012 8.00226 1.19063C8.28337 1.15831 8.94209 1.21579 9.29035 1.30304ZM3.87284 9.68647C3.29615 9.77509 2.70372 10.0025 2.24022 10.3133C1.49782 10.8109 0.805134 11.8894 0.446235 13.1064C0.149466 14.1129 -0.00971563 15.4286 0.023663 16.6002C0.0405105 17.1927 0.0571998 17.3308 0.148121 17.6307C0.465811 18.6788 1.14746 19.4067 2.14985 19.7681C2.81015 20.0062 2.64092 20 8.45707 20C14.2775 20 14.1034 20.0064 14.7684 19.7666C15.7794 19.4021 16.5064 18.6206 16.7869 17.597C16.8563 17.3435 16.876 17.1408 16.8909 16.525C16.924 15.1572 16.7152 13.7275 16.3256 12.6542C16.1635 12.2076 15.7684 11.4669 15.515 11.1348C14.8332 10.241 13.8891 9.74161 12.7274 9.66022C12.4065 9.63771 12.3467 9.64478 12.1341 9.73035C12.0041 9.78267 11.6422 9.98925 11.3297 10.1894C10.2455 10.8841 9.40935 11.1694 8.45707 11.1694C7.51468 11.1694 6.68203 10.887 5.6096 10.204C4.82837 9.70636 4.75548 9.67358 4.40338 9.66107C4.24025 9.65529 4.00149 9.66674 3.87284 9.68647ZM4.98818 11.2227C5.72714 11.6873 6.12523 11.8844 6.69607 12.0681C7.36388 12.283 7.8065 12.3552 8.45707 12.3552C9.11985 12.3552 9.55259 12.2852 10.2121 12.0712C10.8135 11.8761 11.2374 11.6663 11.9528 11.2096L12.5221 10.8463L12.8092 10.8702C13.5459 10.9317 14.1911 11.3207 14.634 11.9704C15.2602 12.8888 15.5869 14.0979 15.6806 15.8444C15.7421 16.9899 15.6692 17.4278 15.3369 17.9095C14.9952 18.4048 14.4392 18.7095 13.7301 18.7901C13.4793 18.8186 11.7136 18.8278 8.21978 18.8187C3.51023 18.8064 3.05752 18.7996 2.82842 18.7381C2.10409 18.5438 1.59804 18.1135 1.36644 17.4951C1.22466 17.1164 1.19504 16.7378 1.23831 15.8581C1.30795 14.4433 1.55509 13.3191 1.98134 12.4783C2.42503 11.6031 2.9541 11.139 3.73977 10.9356C4.27908 10.796 4.32729 10.8071 4.98818 11.2227Z" fill="#BF1017"/>
<path d="M4.98818 11.2227C5.72714 11.6873 6.12523 11.8844 6.69607 12.0681C7.36388 12.283 7.8065 12.3552 8.45707 12.3552C9.11985 12.3552 9.55259 12.2852 10.2121 12.0712C10.8135 11.8761 11.2374 11.6663 11.9528 11.2096L12.5221 10.8463L12.8092 10.8702C13.5459 10.9317 14.1911 11.3207 14.634 11.9704C15.2602 12.8888 15.5869 14.0979 15.6806 15.8444C15.7421 16.9899 15.6692 17.4278 15.3369 17.9095C14.9952 18.4048 14.4392 18.7095 13.7301 18.7901C13.4793 18.8186 11.7136 18.8278 8.21978 18.8187C3.51023 18.8064 3.05752 18.7996 2.82842 18.7381C2.10409 18.5438 1.59804 18.1135 1.36644 17.4951C1.22466 17.1164 1.19504 16.7378 1.23831 15.8581C1.30795 14.4433 1.55509 13.3191 1.98134 12.4783C2.42503 11.6031 2.9541 11.139 3.73977 10.9356C4.27908 10.796 4.32729 10.8071 4.98818 11.2227Z" fill="#BF1017"/>
<path d="M9.29035 1.30304C9.92929 1.46309 10.5258 1.81854 11.0136 2.32997C11.4375 2.77432 11.6853 3.19397 11.8656 3.77245C11.9644 4.08965 11.973 4.17003 11.9745 4.80036C11.9763 5.53823 11.9297 5.79537 11.7016 6.30485C11.365 7.05702 10.5657 7.83415 9.79716 8.15674C9.26476 8.3802 9.07311 8.41318 8.31865 8.41111C7.68295 8.40935 7.5982 8.40064 7.27826 8.30401C6.71003 8.1324 6.28129 7.88608 5.82625 7.46983C4.96999 6.68664 4.56003 5.59668 4.68069 4.42447C4.77007 3.55657 5.06475 2.94167 5.70551 2.28625C6.3429 1.63419 7.04101 1.3012 8.00226 1.19063C8.28337 1.15831 8.94209 1.21579 9.29035 1.30304Z" fill="#BF1017"/>
</svg>
