<svg width="21" height="20" viewBox="0 0 21 20" fill="none" xmlns="http://www.w3.org/2000/svg">
<path d="M4.51078 5.52352C5.40341 5.52352 6.12703 4.7999 6.12703 3.90727C6.12703 3.01464 5.40341 2.29102 4.51078 2.29102C3.61815 2.29102 2.89453 3.01464 2.89453 3.90727C2.89453 4.7999 3.61815 5.52352 4.51078 5.52352Z" stroke="black" stroke-linecap="round" stroke-linejoin="round"/>
<path d="M4.51078 17.7091C5.40341 17.7091 6.12703 16.9854 6.12703 16.0928C6.12703 15.2002 5.40341 14.4766 4.51078 14.4766C3.61815 14.4766 2.89453 15.2002 2.89453 16.0928C2.89453 16.9854 3.61815 17.7091 4.51078 17.7091Z" stroke="black" stroke-linecap="round" stroke-linejoin="round"/>
<path d="M4.51078 11.6153C5.40341 11.6153 6.12703 10.8917 6.12703 9.99906C6.12703 9.10643 5.40341 8.38281 4.51078 8.38281C3.61815 8.38281 2.89453 9.10643 2.89453 9.99906C2.89453 10.8917 3.61815 11.6153 4.51078 11.6153Z" stroke="black" stroke-linecap="round" stroke-linejoin="round"/>
<path d="M17.5648 2.29102H8.61315C8.20116 2.29102 7.86719 2.62499 7.86719 3.03697V4.7776C7.86719 5.18958 8.20116 5.52356 8.61315 5.52356H17.5648C17.9768 5.52356 18.3107 5.18958 18.3107 4.7776V3.03697C18.3107 2.62499 17.9768 2.29102 17.5648 2.29102Z" stroke="black" stroke-linecap="round" stroke-linejoin="round"/>
<path d="M17.5648 14.4766H8.61315C8.20116 14.4766 7.86719 14.8105 7.86719 15.2225V16.9631C7.86719 17.3751 8.20116 17.7091 8.61315 17.7091H17.5648C17.9768 17.7091 18.3107 17.3751 18.3107 16.9631V15.2225C18.3107 14.8105 17.9768 14.4766 17.5648 14.4766Z" stroke="black" stroke-linecap="round" stroke-linejoin="round"/>
<path d="M17.5648 8.38281H8.61315C8.20116 8.38281 7.86719 8.71679 7.86719 9.12877V10.8694C7.86719 11.2814 8.20116 11.6154 8.61315 11.6154H17.5648C17.9768 11.6154 18.3107 11.2814 18.3107 10.8694V9.12877C18.3107 8.71679 17.9768 8.38281 17.5648 8.38281Z" stroke="black" stroke-linecap="round" stroke-linejoin="round"/>
</svg>
