<svg width="25" height="25" viewBox="0 0 25 25" fill="none" xmlns="http://www.w3.org/2000/svg">
<path d="M22.75 7.25C23.1642 7.25 23.5 6.91421 23.5 6.5C23.5 6.08579 23.1642 5.75 22.75 5.75V7.25ZM14.75 5.75C14.3358 5.75 14 6.08579 14 6.5C14 6.91421 14.3358 7.25 14.75 7.25V5.75ZM19.5 2.5C19.5 2.08579 19.1642 1.75 18.75 1.75C18.3358 1.75 18 2.08579 18 2.5H19.5ZM18 10.5C18 10.9142 18.3358 11.25 18.75 11.25C19.1642 11.25 19.5 10.9142 19.5 10.5H18ZM22.75 5.75H18.75V7.25H22.75V5.75ZM18.75 5.75H14.75V7.25H18.75V5.75ZM18 2.5V6.5H19.5V2.5H18ZM18 6.5V10.5H19.5V6.5H18Z" fill="#BF1017"/>
<path d="M12.25 3.5C7.77166 3.5 5.53249 3.5 4.14124 4.89124C2.75 6.28249 2.75 8.52166 2.75 13C2.75 17.4783 2.75 19.7175 4.14124 21.1088C5.53249 22.5 7.77166 22.5 12.25 22.5C16.7283 22.5 18.9675 22.5 20.3588 21.1088C21.75 19.7175 21.75 17.4783 21.75 13V12.5" stroke="#BF1017" stroke-width="1.5" stroke-linecap="round"/>
<path d="M2.75 14.6354C3.36902 14.5455 3.99484 14.5011 4.62171 14.5027C7.27365 14.4466 9.86064 15.2729 11.9211 16.8342C13.832 18.2821 15.1747 20.2749 15.75 22.5" stroke="#BF1017" stroke-width="1.5" stroke-linejoin="round"/>
<path d="M21.75 17.3962C20.5746 16.8009 19.3588 16.4988 18.1362 16.5001C16.2845 16.4928 14.4515 17.1733 12.75 18.5" stroke="#BF1017" stroke-width="1.5" stroke-linejoin="round"/>
</svg>
