<svg width="17" height="16" viewBox="0 0 17 16" fill="none" xmlns="http://www.w3.org/2000/svg">
<path d="M2.5 4.66602H4.5" stroke="#141B34" stroke-width="1.25" stroke-linecap="round" stroke-linejoin="round"/>
<path d="M2.5 11.334H6.5" stroke="#141B34" stroke-width="1.25" stroke-linecap="round" stroke-linejoin="round"/>
<path d="M12.5 11.334H14.5" stroke="#141B34" stroke-width="1.25" stroke-linecap="round" stroke-linejoin="round"/>
<path d="M10.5 4.66602H14.5" stroke="#141B34" stroke-width="1.25" stroke-linecap="round" stroke-linejoin="round"/>
<path d="M4.5 4.66602C4.5 4.04476 4.5 3.73414 4.60149 3.4891C4.73682 3.1624 4.99639 2.90284 5.32309 2.76751C5.56812 2.66602 5.87875 2.66602 6.5 2.66602C7.12125 2.66602 7.43187 2.66602 7.67693 2.76751C8.0036 2.90284 8.2632 3.1624 8.39853 3.4891C8.5 3.73414 8.5 4.04476 8.5 4.66602C8.5 5.28727 8.5 5.5979 8.39853 5.84293C8.2632 6.16963 8.0036 6.4292 7.67693 6.56452C7.43187 6.66602 7.12125 6.66602 6.5 6.66602C5.87875 6.66602 5.56812 6.66602 5.32309 6.56452C4.99639 6.4292 4.73682 6.16963 4.60149 5.84293C4.5 5.5979 4.5 5.28727 4.5 4.66602Z" stroke="#141B34" stroke-width="1.25"/>
<path d="M8.5 11.334C8.5 10.7127 8.5 10.4021 8.60147 10.1571C8.7368 9.83038 8.9964 9.57078 9.32307 9.43545C9.56813 9.33398 9.87873 9.33398 10.5 9.33398C11.1213 9.33398 11.4319 9.33398 11.6769 9.43545C12.0036 9.57078 12.2632 9.83038 12.3985 10.1571C12.5 10.4021 12.5 10.7127 12.5 11.334C12.5 11.9553 12.5 12.2659 12.3985 12.5109C12.2632 12.8376 12.0036 13.0972 11.6769 13.2325C11.4319 13.334 11.1213 13.334 10.5 13.334C9.87873 13.334 9.56813 13.334 9.32307 13.2325C8.9964 13.0972 8.7368 12.8376 8.60147 12.5109C8.5 12.2659 8.5 11.9553 8.5 11.334Z" stroke="#141B34" stroke-width="1.25"/>
</svg>
