<svg width="18" height="18" viewBox="0 0 18 18" fill="none" xmlns="http://www.w3.org/2000/svg">
<path d="M17.25 16.5H15V4.49964C15 2.8451 13.6545 1.49956 12 1.49956H11.5988C11.4202 1.1913 11.1862 0.913044 10.902 0.680538C10.2045 0.109023 9.297 -0.118233 8.412 0.0587713L6.01425 0.538034C4.2675 0.887543 3 2.43408 3 4.21538V16.5H0.75C0.336 16.5 0 16.8352 0 17.25C0 17.6647 0.336 18 0.75 18H17.25C17.664 18 18 17.6647 18 17.25C18 16.8352 17.664 16.5 17.25 16.5ZM12 2.9996C12.8273 2.9996 13.5 3.67237 13.5 4.49964V16.5H12V2.9996ZM4.5 4.21538C4.5 3.14585 5.2605 2.21808 6.30825 2.00882L8.70525 1.52956C9.14775 1.44031 9.6015 1.55431 9.951 1.84082C10.2997 2.12658 10.4992 2.54884 10.4992 3.00035V16.5H4.5V4.21538ZM9 9.37477C9 9.99579 8.496 10.4998 7.875 10.4998C7.254 10.4998 6.75 9.99579 6.75 9.37477C6.75 8.75375 7.254 8.24974 7.875 8.24974C8.496 8.24974 9 8.75375 9 9.37477Z" fill="#BF1017"/>
</svg>
