<svg width="15" height="15" viewBox="0 0 15 15" fill="none" xmlns="http://www.w3.org/2000/svg">
<path fill-rule="evenodd" clip-rule="evenodd" d="M7.21493 0H7.28507C7.89137 0 8.39651 3.01489e-08 8.79712 0.0539535C9.22065 0.110605 9.60305 0.236047 9.90991 0.542907C10.2174 0.850442 10.3429 1.23284 10.3995 1.6557C10.44 1.95244 10.4501 2.30584 10.4528 2.71453C10.8898 2.7287 11.2797 2.755 11.6263 2.80086C12.4167 2.90742 13.0567 3.13133 13.5619 3.63579C14.0663 4.14093 14.2903 4.78095 14.3968 5.57137C14.5 6.34021 14.5 7.32149 14.5 8.56107V8.63661C14.5 9.87619 14.5 10.8581 14.3968 11.6263C14.2903 12.4167 14.0663 13.0567 13.5619 13.5619C13.0567 14.0663 12.4167 14.2903 11.6263 14.3968C10.8575 14.5 9.87619 14.5 8.63661 14.5H5.8634C4.62381 14.5 3.64186 14.5 2.8737 14.3968C2.08328 14.2903 1.44326 14.0663 0.938116 13.5619C0.433651 13.0567 0.209744 12.4167 0.103186 11.6263C0 10.8575 0 9.87619 0 8.63661V8.56107C0 7.32149 0 6.33953 0.103186 5.57137C0.209744 4.78095 0.433651 4.14093 0.938116 3.63579C1.44326 3.13133 2.08328 2.90742 2.8737 2.80086C3.26319 2.75264 3.65483 2.72383 4.04719 2.71453C4.04988 2.30584 4.06067 1.95244 4.10047 1.6557C4.15712 1.23284 4.28256 0.850442 4.58942 0.542907C4.89695 0.236047 5.27935 0.111279 5.70221 0.0539535C6.10349 3.01489e-08 6.6093 0 7.21493 0ZM5.05949 2.69902C5.31442 2.69767 5.58216 2.69767 5.8634 2.69767H8.63661C8.91784 2.69767 9.18558 2.69767 9.44051 2.69902C9.43781 2.3146 9.42837 2.0246 9.39735 1.79058C9.35486 1.47967 9.2827 1.34614 9.19502 1.25847C9.10735 1.17079 8.97381 1.09863 8.66223 1.05614C8.33716 1.01298 7.90014 1.01163 7.25 1.01163C6.59986 1.01163 6.16284 1.01298 5.83709 1.05681C5.52619 1.09863 5.39265 1.17079 5.30498 1.25914C5.2173 1.34681 5.14514 1.47967 5.10265 1.79058C5.07163 2.02393 5.06219 2.31393 5.05949 2.69902ZM3.00791 3.80372C2.32944 3.89477 1.93828 4.06607 1.65233 4.35135C1.36772 4.63663 1.19642 5.02779 1.10537 5.70626C1.0123 6.39888 1.01095 7.31272 1.01095 8.59884C1.01095 9.88495 1.0123 10.7988 1.10537 11.4921C1.19642 12.1699 1.36772 12.561 1.653 12.8463C1.93828 13.1316 2.32944 13.3029 3.00791 13.394C3.70121 13.487 4.61437 13.4884 5.90049 13.4884H8.59816C9.88428 13.4884 10.7981 13.487 11.4914 13.394C12.1692 13.3029 12.5604 13.1316 12.8457 12.8463C13.1309 12.561 13.3022 12.1699 13.3933 11.4914C13.4863 10.7988 13.4877 9.88495 13.4877 8.59884C13.4877 7.31272 13.4863 6.39956 13.3933 5.70558C13.3022 5.02779 13.1309 4.63663 12.8457 4.35135C12.5604 4.06607 12.1692 3.89477 11.4907 3.80372C10.7981 3.71065 9.88428 3.7093 8.59816 3.7093H5.90049C4.61437 3.7093 3.70188 3.71065 3.00791 3.80372ZM7.25 5.39535C7.38415 5.39535 7.51281 5.44864 7.60766 5.5435C7.70252 5.63836 7.75581 5.76701 7.75581 5.90116V5.90791C8.49026 6.0927 9.10465 6.67202 9.10465 7.47458C9.10465 7.60873 9.05136 7.73739 8.9565 7.83225C8.86164 7.9271 8.73299 7.9804 8.59884 7.9804C8.46469 7.9804 8.33603 7.9271 8.24117 7.83225C8.14631 7.73739 8.09302 7.60873 8.09302 7.47458C8.09302 7.21561 7.80572 6.85681 7.25 6.85681C6.69428 6.85681 6.40698 7.21561 6.40698 7.47458C6.40698 7.73356 6.69428 8.09302 7.25 8.09302C8.18407 8.09302 9.10465 8.74047 9.10465 9.72309C9.10465 10.5257 8.49026 11.1043 7.75581 11.2898V11.2965C7.75581 11.4307 7.70252 11.5593 7.60766 11.6542C7.51281 11.749 7.38415 11.8023 7.25 11.8023C7.11585 11.8023 6.98719 11.749 6.89234 11.6542C6.79748 11.5593 6.74419 11.4307 6.74419 11.2965V11.2898C6.00974 11.105 5.39535 10.5257 5.39535 9.72309C5.39535 9.58894 5.44864 9.46029 5.5435 9.36543C5.63836 9.27057 5.76701 9.21728 5.90116 9.21728C6.03531 9.21728 6.16397 9.27057 6.25883 9.36543C6.35369 9.46029 6.40698 9.58894 6.40698 9.72309C6.40698 9.98207 6.69428 10.3409 7.25 10.3409C7.80572 10.3409 8.09302 9.98207 8.09302 9.72309C8.09302 9.46412 7.80572 9.10465 7.25 9.10465C6.31593 9.10465 5.39535 8.45721 5.39535 7.47458C5.39535 6.67202 6.00974 6.0927 6.74419 5.90791V5.90116C6.74419 5.76701 6.79748 5.63836 6.89234 5.5435C6.98719 5.44864 7.11585 5.39535 7.25 5.39535Z" fill="black"/>
</svg>
