<svg width="18" height="18" viewBox="0 0 18 18" fill="none" xmlns="http://www.w3.org/2000/svg">
<path fill-rule="evenodd" clip-rule="evenodd" d="M8.95228 0H9.04772C10.9808 0 12.4953 4.99016e-08 13.6775 0.15907C14.8864 0.321488 15.8408 0.661395 16.5901 1.40986C17.3394 2.15916 17.6785 3.11358 17.8409 4.32335C18 5.50465 18 7.01916 18 8.95228V9.04772C18 10.9808 18 12.4953 17.8409 13.6775C17.6785 14.8864 17.3386 15.8408 16.5901 16.5901C15.8408 17.3394 14.8864 17.6785 13.6767 17.8409C12.4953 18 10.9808 18 9.04772 18H8.95228C7.01916 18 5.50465 18 4.32251 17.8409C3.11358 17.6785 2.15916 17.3386 1.40986 16.5901C0.660558 15.8408 0.321488 14.8864 0.15907 13.6767C4.99016e-08 12.4953 0 10.9808 0 9.04772V8.95228C0 7.01916 4.99016e-08 5.50465 0.15907 4.32251C0.321488 3.11358 0.661395 2.15916 1.40986 1.40986C2.15916 0.660558 3.11358 0.321488 4.32335 0.15907C5.50465 4.99016e-08 7.01916 0 8.95228 0ZM4.48995 1.40316C3.42 1.54716 2.77451 1.82177 2.29814 2.29814C1.82093 2.77535 1.54716 3.42 1.40316 4.49079C1.25749 5.57916 1.25581 7.00912 1.25581 9C1.25581 10.9909 1.25749 12.4208 1.40316 13.5092C1.54716 14.58 1.82177 15.2255 2.29814 15.7027C2.77535 16.1791 3.42 16.4528 4.49079 16.5968C5.57916 16.7425 7.00912 16.7442 9 16.7442C10.9909 16.7442 12.4208 16.7425 13.5092 16.5968C14.58 16.4528 15.2255 16.1782 15.7027 15.7019C16.1791 15.2247 16.4528 14.58 16.5968 13.5092C16.7425 12.4208 16.7442 10.9909 16.7442 9C16.7442 7.00912 16.7425 5.57916 16.5968 4.49079C16.4528 3.42 16.1782 2.77451 15.7019 2.2973C15.2246 1.82093 14.58 1.54716 13.5092 1.40316C12.4208 1.25749 10.9909 1.25581 9 1.25581C7.00912 1.25581 5.57832 1.25749 4.48995 1.40316ZM7.75842 4.35851C7.81822 4.41538 7.86622 4.48348 7.89968 4.55891C7.93315 4.63435 7.95141 4.71564 7.95343 4.79814C7.95545 4.88064 7.94119 4.96273 7.91147 5.03971C7.88174 5.11669 7.83713 5.18706 7.78019 5.24679L5.38828 7.75842C5.32964 7.81997 5.2591 7.86897 5.18096 7.90245C5.10282 7.93593 5.01869 7.9532 4.93367 7.9532C4.84866 7.9532 4.76453 7.93593 4.68639 7.90245C4.60824 7.86897 4.53771 7.81997 4.47907 7.75842L3.52214 6.75377C3.46283 6.69456 3.41598 6.62409 3.38434 6.54649C3.3527 6.4689 3.33691 6.38575 3.3379 6.30196C3.33889 6.21817 3.35664 6.13542 3.39011 6.0586C3.42358 5.98177 3.47209 5.91243 3.53278 5.85464C3.59347 5.79686 3.66512 5.75181 3.74349 5.72214C3.82186 5.69248 3.90538 5.6788 3.98912 5.68192C4.07286 5.68504 4.15513 5.70489 4.23108 5.74029C4.30703 5.7757 4.37512 5.82596 4.43135 5.88809L4.93367 6.41553L6.87098 4.38112C6.9858 4.2606 7.14378 4.1906 7.31019 4.18652C7.4766 4.18244 7.63782 4.24377 7.75842 4.35851ZM9.2093 6.48837C9.2093 6.32184 9.27546 6.16213 9.39321 6.04437C9.51097 5.92662 9.67068 5.86047 9.83721 5.86047H14.0233C14.1898 5.86047 14.3495 5.92662 14.4673 6.04437C14.585 6.16213 14.6512 6.32184 14.6512 6.48837C14.6512 6.6549 14.585 6.81461 14.4673 6.93237C14.3495 7.05012 14.1898 7.11628 14.0233 7.11628H9.83721C9.67068 7.11628 9.51097 7.05012 9.39321 6.93237C9.27546 6.81461 9.2093 6.6549 9.2093 6.48837ZM7.75842 10.2198C8.00958 10.4593 8.01963 10.8561 7.78019 11.1073L5.38828 13.6189C5.32964 13.6804 5.2591 13.7294 5.18096 13.7629C5.10282 13.7964 5.01869 13.8137 4.93367 13.8137C4.84866 13.8137 4.76453 13.7964 4.68639 13.7629C4.60824 13.7294 4.53771 13.6804 4.47907 13.6189L3.52214 12.6142C3.46283 12.555 3.41598 12.4846 3.38434 12.407C3.3527 12.3294 3.33691 12.2462 3.3379 12.1624C3.33889 12.0786 3.35664 11.9959 3.39011 11.9191C3.42358 11.8422 3.47209 11.7729 3.53278 11.7151C3.59347 11.6573 3.66512 11.6123 3.74349 11.5826C3.82186 11.5529 3.90538 11.5393 3.98912 11.5424C4.07286 11.5455 4.15513 11.5654 4.23108 11.6008C4.30703 11.6362 4.37512 11.6864 4.43135 11.7486L4.93367 12.276L6.87098 10.2416C6.9858 10.1211 7.14378 10.0511 7.31019 10.047C7.4766 10.0429 7.63782 10.1051 7.75842 10.2198ZM9.2093 12.3488C9.2093 12.1823 9.27546 12.0226 9.39321 11.9048C9.51097 11.7871 9.67068 11.7209 9.83721 11.7209H14.0233C14.1898 11.7209 14.3495 11.7871 14.4673 11.9048C14.585 12.0226 14.6512 12.1823 14.6512 12.3488C14.6512 12.5154 14.585 12.6751 14.4673 12.7928C14.3495 12.9106 14.1898 12.9767 14.0233 12.9767H9.83721C9.67068 12.9767 9.51097 12.9106 9.39321 12.7928C9.27546 12.6751 9.2093 12.5154 9.2093 12.3488Z" fill="black"/>
</svg>
