<svg width="20" height="20" viewBox="0 0 20 20" fill="none" xmlns="http://www.w3.org/2000/svg">
<path d="M1.66797 7.14024C1.66797 6.14342 2.06995 5.53253 2.90183 5.06958L6.32619 3.16388C8.12055 2.16531 9.01772 1.66602 10.0013 1.66602C10.9849 1.66602 11.8821 2.16531 13.6764 3.16388L17.1008 5.06958C17.9326 5.53253 18.3346 6.14343 18.3346 7.14024C18.3346 7.41054 18.3346 7.54569 18.3051 7.6568C18.1501 8.24056 17.6211 8.33268 17.1102 8.33268H2.89237C2.38153 8.33268 1.85257 8.24055 1.69749 7.6568C1.66797 7.54569 1.66797 7.41054 1.66797 7.14024Z" stroke="black" stroke-width="1.5"/>
<path d="M9.99609 5.83398H10.0036" stroke="black" stroke-width="2" stroke-linecap="round" stroke-linejoin="round"/>
<path d="M3.33203 8.33398V15.4173M6.66536 8.33398V15.4173" stroke="black" stroke-width="1.5"/>
<path d="M13.332 8.33398V15.4173M16.6654 8.33398V15.4173" stroke="black" stroke-width="1.5"/>
<path d="M15.8346 15.416H4.16797C2.78726 15.416 1.66797 16.5353 1.66797 17.916C1.66797 18.1461 1.85452 18.3327 2.08464 18.3327H17.918C18.1481 18.3327 18.3346 18.1461 18.3346 17.916C18.3346 16.5353 17.2154 15.416 15.8346 15.416Z" stroke="black" stroke-width="1.5"/>
</svg>
