<svg width="14" height="16" viewBox="0 0 14 16" fill="none" xmlns="http://www.w3.org/2000/svg">
<path d="M3.52989 2.00843C3.97532 1.23255 4.668 0.628397 5.49721 0.292545C6.32642 -0.0433073 7.24429 -0.0914699 8.1041 0.155756C8.96391 0.402982 9.71601 0.931322 10.2402 1.65632C10.7644 2.38132 11.0304 3.26113 10.9956 4.1551C10.9609 5.04907 10.6275 5.90559 10.0487 6.58776C9.46985 7.26993 8.67904 7.73835 7.80265 7.91815C6.92626 8.09795 6.01489 7.97875 5.21422 7.5796C4.41355 7.18045 3.76981 6.5244 3.3859 5.71631C3.1294 5.90395 2.81972 6.00484 2.50192 6.0043H2.00194V6.2593C2.00194 6.44929 2.07394 6.62229 2.19193 6.75328C2.29277 6.6393 2.42593 6.55873 2.57369 6.52231C2.72146 6.4859 2.87681 6.49536 3.01906 6.54943C3.16131 6.60351 3.28372 6.69964 3.36997 6.82502C3.45623 6.9504 3.50225 7.09908 3.50189 7.25127C3.50182 7.35578 3.4799 7.45913 3.43754 7.55467C3.39519 7.65022 3.33333 7.73586 3.25593 7.8061C3.17854 7.87634 3.08732 7.92962 2.98813 7.96254C2.88893 7.99546 2.78395 8.00728 2.67992 7.99724C2.22955 7.98144 1.8029 7.79141 1.48989 7.4672C1.17688 7.143 1.00195 6.70994 1.00197 6.2593V2.50741C1.00197 2.37481 1.05465 2.24763 1.14841 2.15387C1.24218 2.0601 1.36935 2.00743 1.50195 2.00743H3.50189L3.52989 2.00843ZM4.00188 4.11936C4.03303 4.90406 4.37064 5.64526 4.94222 6.1838C5.5138 6.72233 6.27377 7.01526 7.05894 6.99968C7.8441 6.98411 8.59185 6.66126 9.14162 6.10048C9.69139 5.53969 9.99933 4.78568 9.99933 4.00037C9.99933 3.21505 9.69139 2.46104 9.14162 1.90025C8.59185 1.33947 7.8441 1.01663 7.05894 1.00105C6.27377 0.985468 5.5138 1.2784 4.94222 1.81693C4.37064 2.35547 4.03303 3.09667 4.00188 3.88137V4.11936ZM3.00191 3.86237V3.0074H2.00194V5.00433H2.50192C2.63453 5.00433 2.7617 4.95166 2.85547 4.85789C2.94923 4.76413 3.00191 4.63695 3.00191 4.50435V4.13836C2.99879 4.04639 2.99879 3.95434 3.00191 3.86237ZM0 11.0002C0 9.88719 0.902972 9.00021 2.00894 9.00021H11.9996C12.5301 9.00021 13.0387 9.21092 13.4138 9.58598C13.7889 9.96104 13.9996 10.4697 13.9996 11.0002C13.9996 12.6911 13.1666 13.9661 11.8646 14.797C10.5827 15.614 8.85473 16 6.99979 16C5.14484 16 3.4169 15.614 2.13494 14.797C0.832975 13.9671 0 12.6901 0 11.0002ZM2.00894 10.0002C1.44796 10.0002 0.99997 10.4472 0.99997 11.0002C0.99997 12.3091 1.62195 13.2841 2.67292 13.9531C3.74289 14.636 5.26484 15 6.99979 15C8.73473 15 10.2567 14.636 11.3267 13.9531C12.3766 13.2831 12.9996 12.3101 12.9996 11.0002C12.9996 10.7349 12.8943 10.4806 12.7067 10.2931C12.5192 10.1055 12.2648 10.0002 11.9996 10.0002H2.00894Z" fill="black"/>
</svg>
