<svg width="16" height="16" viewBox="0 0 16 16" fill="none" xmlns="http://www.w3.org/2000/svg">
<path d="M7.9987 14.6673C11.6806 14.6673 14.6654 11.6825 14.6654 8.00065C14.6654 4.31875 11.6806 1.33398 7.9987 1.33398C4.3168 1.33398 1.33203 4.31875 1.33203 8.00065C1.33203 11.6825 4.3168 14.6673 7.9987 14.6673Z" stroke="#141B34"/>
<path d="M5 11.3327C6.55447 9.70455 9.4288 9.62788 11 11.3327M9.6634 6.33268C9.6634 7.25315 8.91613 7.99935 7.99433 7.99935C7.0726 7.99935 6.32531 7.25315 6.32531 6.33268C6.32531 5.41221 7.0726 4.66602 7.99433 4.66602C8.91613 4.66602 9.6634 5.41221 9.6634 6.33268Z" stroke="#141B34" stroke-linecap="round"/>
</svg>
