<svg width="18" height="18" viewBox="0 0 18 18" fill="none" xmlns="http://www.w3.org/2000/svg">
<path d="M4.23529 8.47059H8.47059V4.23529H9.52941V8.47059H13.7647V9.52941H9.52941V13.7647H8.47059V9.52941H4.23529V8.47059ZM3.17647 0H14.8235C15.666 0 16.4739 0.334663 17.0696 0.930367C17.6653 1.52607 18 2.33402 18 3.17647V14.8235C18 15.666 17.6653 16.4739 17.0696 17.0696C16.4739 17.6653 15.666 18 14.8235 18H3.17647C2.33402 18 1.52607 17.6653 0.930367 17.0696C0.334663 16.4739 0 15.666 0 14.8235V3.17647C0 2.33402 0.334663 1.52607 0.930367 0.930367C1.52607 0.334663 2.33402 0 3.17647 0ZM3.17647 1.05882C2.61484 1.05882 2.0762 1.28193 1.67907 1.67907C1.28193 2.0762 1.05882 2.61484 1.05882 3.17647V14.8235C1.05882 15.3852 1.28193 15.9238 1.67907 16.3209C2.0762 16.7181 2.61484 16.9412 3.17647 16.9412H14.8235C15.3852 16.9412 15.9238 16.7181 16.3209 16.3209C16.7181 15.9238 16.9412 15.3852 16.9412 14.8235V3.17647C16.9412 2.61484 16.7181 2.0762 16.3209 1.67907C15.9238 1.28193 15.3852 1.05882 14.8235 1.05882H3.17647Z" fill="black"/>
</svg>
