<svg width="16" height="16" viewBox="0 0 16 16" fill="none" xmlns="http://www.w3.org/2000/svg">
<path d="M12 1.33398V2.66732M4 1.33398V2.66732" stroke="#BF1017" stroke-linecap="round" stroke-linejoin="round"/>
<path d="M7.9957 8.66602H8.0017M7.9957 11.3327H8.0017M10.6594 8.66602H10.6654M5.33203 8.66602H5.33801M5.33203 11.3327H5.33801" stroke="#BF1017" stroke-width="1.33333" stroke-linecap="round" stroke-linejoin="round"/>
<path d="M2.33203 5.33398H13.6654" stroke="#BF1017" stroke-linecap="round" stroke-linejoin="round"/>
<path d="M1.66797 8.16213C1.66797 5.25729 1.66797 3.80485 2.50272 2.90243C3.33746 2 4.68096 2 7.36797 2H8.63464C11.3216 2 12.6652 2 13.4999 2.90243C14.3346 3.80485 14.3346 5.25729 14.3346 8.16213V8.50453C14.3346 11.4094 14.3346 12.8618 13.4999 13.7643C12.6652 14.6667 11.3216 14.6667 8.63464 14.6667H7.36797C4.68096 14.6667 3.33746 14.6667 2.50272 13.7643C1.66797 12.8618 1.66797 11.4094 1.66797 8.50453V8.16213Z" stroke="#BF1017" stroke-linecap="round" stroke-linejoin="round"/>
<path d="M2 5.33398H14" stroke="#BF1017" stroke-linecap="round" stroke-linejoin="round"/>
</svg>
