<svg width="19" height="18" viewBox="0 0 19 18" fill="none" xmlns="http://www.w3.org/2000/svg">
<path d="M13.1947 6.70958C13.2601 6.64431 13.3118 6.5666 13.3467 6.48105C13.3816 6.3955 13.399 6.30383 13.3979 6.21144C13.3968 6.11906 13.3772 6.02783 13.3403 5.94313C13.3034 5.85842 13.2499 5.78196 13.183 5.71826C13.1161 5.65455 13.0371 5.60488 12.9507 5.57217C12.8643 5.53946 12.7722 5.52439 12.6799 5.52782C12.5876 5.53126 12.4968 5.55314 12.4131 5.59218C12.3294 5.63122 12.2543 5.68663 12.1923 5.75514L10.0563 7.99817L9.5025 7.41665C9.44051 7.34814 9.36544 7.29273 9.2817 7.25369C9.19796 7.21465 9.10725 7.19277 9.01493 7.18933C8.9226 7.18589 8.83052 7.20097 8.74411 7.23368C8.6577 7.26639 8.57871 7.31606 8.5118 7.37977C8.44488 7.44347 8.3914 7.51993 8.3545 7.60463C8.31759 7.68934 8.29802 7.78057 8.29692 7.87295C8.29583 7.96534 8.31324 8.05701 8.34813 8.14256C8.38301 8.22811 8.43467 8.30582 8.50006 8.37109L9.55512 9.47876C9.61977 9.54663 9.69754 9.60065 9.7837 9.63757C9.86985 9.67448 9.96261 9.69351 10.0563 9.69351C10.1501 9.69351 10.2428 9.67448 10.329 9.63757C10.4151 9.60065 10.4929 9.54663 10.5576 9.47876L13.1947 6.70958Z" fill="black"/>
<path fill-rule="evenodd" clip-rule="evenodd" d="M0.0401906 0.462765C0.101052 0.289581 0.228205 0.147658 0.393687 0.0682061C0.559169 -0.0112461 0.749432 -0.0217226 0.922637 0.0390803L1.20048 0.136925C1.77001 0.337229 2.25277 0.507072 2.63399 0.69353C3.04014 0.893835 3.38906 1.13937 3.65121 1.52336C3.91151 1.90366 4.01951 2.32181 4.06843 2.78057L4.07858 2.88026H14.6495C15.4055 2.88026 16.1753 2.88026 16.8094 2.95134C17.1325 2.98734 17.4528 3.04457 17.7353 3.14426C18.0122 3.24118 18.3177 3.40087 18.5346 3.68332C18.8873 4.14116 18.9491 4.67469 18.9159 5.21561C18.8836 5.73067 18.7562 6.37128 18.6039 7.1328L18.5946 7.18173L18.5928 7.18542L18.1239 9.46538C17.9854 10.1355 17.8691 10.6995 17.7187 11.1453C17.5599 11.6161 17.3402 12.0315 16.9461 12.3527C16.5519 12.673 16.1005 12.805 15.6067 12.8659C15.1405 12.9232 14.5636 12.9232 13.8806 12.9232H8.88958C7.64806 12.9232 6.64192 12.9232 5.84994 12.8106C5.02195 12.6933 4.32689 12.4413 3.77951 11.8635C3.2746 11.3318 3.00506 10.7669 2.8703 9.9786C2.74384 9.24015 2.73184 8.27278 2.73184 6.9325V4.41993C2.73184 3.73686 2.72999 3.27995 2.69215 2.92918C2.65522 2.59411 2.59153 2.42612 2.50753 2.30427C2.42723 2.1852 2.30446 2.07351 2.02385 1.93689C1.7257 1.79105 1.32048 1.64705 0.703872 1.43013L0.463876 1.34613C0.377934 1.3161 0.29876 1.2694 0.230888 1.20872C0.163016 1.14805 0.107779 1.07458 0.0683381 0.992525C0.0288975 0.910471 0.00602837 0.821444 0.00104003 0.73054C-0.00394831 0.639637 0.00996516 0.548642 0.0401906 0.462765ZM4.11551 4.26485V6.9325C4.11551 8.30694 4.13212 9.146 4.2355 9.74507C4.32873 10.2943 4.48842 10.5989 4.7838 10.9109C5.0358 11.1767 5.38379 11.3466 6.04378 11.4398C6.72685 11.5367 7.63514 11.5386 8.94219 11.5386H13.8381C14.5756 11.5386 15.0658 11.5377 15.4387 11.4924C15.7913 11.449 15.9556 11.3733 16.071 11.2792C16.1864 11.185 16.2925 11.0392 16.407 10.7023C16.527 10.3469 16.6267 9.86691 16.7762 9.14415L17.2359 6.91035V6.9085C17.4002 6.08698 17.5082 5.54052 17.5331 5.13068C17.5571 4.74115 17.4962 4.60546 17.4399 4.53069C17.3906 4.49449 17.3353 4.4673 17.2765 4.45039C17.0748 4.38687 16.8668 4.34539 16.6562 4.3267C16.107 4.26578 15.411 4.26485 14.6209 4.26485H4.11551ZM3.69274 15.9231C3.69274 16.4739 3.91156 17.0022 4.30105 17.3917C4.69054 17.7812 5.21881 18 5.76963 18C6.32046 18 6.84872 17.7812 7.23821 17.3917C7.6277 17.0022 7.84652 16.4739 7.84652 15.9231C7.84652 15.3723 7.6277 14.844 7.23821 14.4545C6.84872 14.065 6.32046 13.8462 5.76963 13.8462C5.21881 13.8462 4.69054 14.065 4.30105 14.4545C3.91156 14.844 3.69274 15.3723 3.69274 15.9231ZM5.76963 16.6154C5.58602 16.6154 5.40993 16.5425 5.2801 16.4126C5.15027 16.2828 5.07734 16.1067 5.07734 15.9231C5.07734 15.7395 5.15027 15.5634 5.2801 15.4336C5.40993 15.3038 5.58602 15.2308 5.76963 15.2308C5.95324 15.2308 6.12933 15.3038 6.25916 15.4336C6.38899 15.5634 6.46193 15.7395 6.46193 15.9231C6.46193 16.1067 6.38899 16.2828 6.25916 16.4126C6.12933 16.5425 5.95324 16.6154 5.76963 16.6154ZM12.0003 15.9231C12.0003 16.1959 12.054 16.4659 12.1584 16.7179C12.2628 16.9699 12.4157 17.1988 12.6086 17.3917C12.8015 17.5846 13.0304 17.7375 13.2824 17.8419C13.5344 17.9463 13.8044 18 14.0772 18C14.3499 18 14.62 17.9463 14.872 17.8419C15.124 17.7375 15.3529 17.5846 15.5458 17.3917C15.7386 17.1988 15.8916 16.9699 15.996 16.7179C16.1003 16.4659 16.1541 16.1959 16.1541 15.9231C16.1541 15.3723 15.9353 14.844 15.5458 14.4545C15.1563 14.065 14.628 13.8462 14.0772 13.8462C13.5264 13.8462 12.9981 14.065 12.6086 14.4545C12.2191 14.844 12.0003 15.3723 12.0003 15.9231ZM14.0772 16.6154C13.8936 16.6154 13.7175 16.5425 13.5877 16.4126C13.4578 16.2828 13.3849 16.1067 13.3849 15.9231C13.3849 15.7395 13.4578 15.5634 13.5877 15.4336C13.7175 15.3038 13.8936 15.2308 14.0772 15.2308C14.2608 15.2308 14.4369 15.3038 14.5667 15.4336C14.6965 15.5634 14.7695 15.7395 14.7695 15.9231C14.7695 16.1067 14.6965 16.2828 14.5667 16.4126C14.4369 16.5425 14.2608 16.6154 14.0772 16.6154Z" fill="black"/>
</svg>
