<svg width="16" height="14" viewBox="0 0 16 14" fill="none" xmlns="http://www.w3.org/2000/svg">
<path d="M5 13.75C5.4125 13.75 5.75 13.4125 5.75 13V9.1825C5.75 8.4475 5.2175 7.8325 4.4975 7.705C3.95476 7.61319 3.44775 7.37378 3.03201 7.013C2.61627 6.65223 2.30783 6.18399 2.14048 5.6596C1.97313 5.1352 1.95333 4.57486 2.08323 4.03995C2.21314 3.50505 2.48775 3.01621 2.87698 2.62698C3.26621 2.23775 3.75505 1.96314 4.28995 1.83323C4.82486 1.70333 5.3852 1.72313 5.9096 1.89048C6.43399 2.05783 6.90223 2.36627 7.263 2.78201C7.62378 3.19775 7.86319 3.70476 7.955 4.2475C8.0825 4.9675 8.6975 5.5 9.4325 5.5H12.6275L11.9675 6.16C11.8981 6.22944 11.843 6.31187 11.8054 6.40259C11.7678 6.49332 11.7485 6.59055 11.7485 6.68875C11.7485 6.78695 11.7678 6.88418 11.8054 6.97491C11.843 7.06563 11.8981 7.14806 11.9675 7.2175C12.0369 7.28694 12.1194 7.34202 12.2101 7.3796C12.3008 7.41717 12.3981 7.43652 12.4963 7.43652C12.5944 7.43652 12.6917 7.41717 12.7824 7.3796C12.8731 7.34202 12.9556 7.28694 13.025 7.2175L14.9675 5.275C15.037 5.20561 15.0922 5.1232 15.1298 5.03247C15.1675 4.94174 15.1868 4.84448 15.1868 4.74625C15.1868 4.64802 15.1675 4.55076 15.1298 4.46003C15.0922 4.3693 15.037 4.28689 14.9675 4.2175L13.025 2.275C12.8848 2.13477 12.6946 2.05598 12.4963 2.05598C12.2979 2.05598 12.1077 2.13477 11.9675 2.275C11.8273 2.41523 11.7485 2.60543 11.7485 2.80375C11.7485 3.00207 11.8273 3.19227 11.9675 3.3325L12.6275 4H9.44C9.08 1.87 7.2275 0.25 5 0.25C2.5175 0.25 0.5 2.2675 0.5 4.75C0.5 6.9775 2.12 8.83 4.25 9.19V13C4.25 13.4125 4.5875 13.75 5 13.75Z" fill="black"/>
</svg>
