<svg width="15" height="15" viewBox="0 0 15 15" fill="none" xmlns="http://www.w3.org/2000/svg">
<path d="M5.05512 12.7509C5.29914 12.7509 5.49696 12.553 5.49696 12.309C5.49696 12.065 5.29914 11.8672 5.05512 11.8672C4.8111 11.8672 4.61328 12.065 4.61328 12.309C4.61328 12.553 4.8111 12.7509 5.05512 12.7509Z" stroke="black" stroke-width="0.883676" stroke-linecap="round" stroke-linejoin="round"/>
<path d="M11.2407 12.7509C11.4847 12.7509 11.6825 12.553 11.6825 12.309C11.6825 12.065 11.4847 11.8672 11.2407 11.8672C10.9966 11.8672 10.7988 12.065 10.7988 12.309C10.7988 12.553 10.9966 12.7509 11.2407 12.7509Z" stroke="black" stroke-width="0.883676" stroke-linecap="round" stroke-linejoin="round"/>
<path d="M1.51953 3.0293H3.28688L4.6124 10.5405H11.6818" stroke="black" stroke-width="0.883676" stroke-linecap="round" stroke-linejoin="round"/>
<path d="M4.61219 8.77385H11.5004C11.5515 8.77388 11.6011 8.75621 11.6406 8.72383C11.6801 8.69146 11.7072 8.64638 11.7172 8.59628L12.5125 4.61974C12.5189 4.58768 12.5182 4.55459 12.5102 4.52286C12.5023 4.49113 12.4875 4.46156 12.4667 4.43628C12.446 4.411 12.4199 4.39063 12.3903 4.37666C12.3607 4.36268 12.3285 4.35545 12.2958 4.35547H3.72852" stroke="black" stroke-width="0.883676" stroke-linecap="round" stroke-linejoin="round"/>
</svg>
