<svg width="16" height="16" viewBox="0 0 16 16" fill="none" xmlns="http://www.w3.org/2000/svg">
<path d="M9.95087 1.94134L5.51568 4.07033C5.17434 4.23418 4.80962 4.27523 4.43783 4.19194C4.19451 4.13743 4.07284 4.11018 3.97487 4.09899C2.75829 3.96006 2 4.92293 2 6.03016V6.6378C2 7.74505 2.75829 8.70792 3.97487 8.56898C4.07284 8.55778 4.19452 8.53052 4.43783 8.47605C4.80962 8.39272 5.17434 8.43378 5.51568 8.59765L9.95087 10.7267C10.9689 11.2154 11.478 11.4597 12.0456 11.2693C12.6131 11.0788 12.8079 10.67 13.1976 9.85265C14.2675 7.60812 14.2675 5.05988 13.1976 2.81529C12.8079 1.99789 12.6131 1.58919 12.0456 1.39872C11.478 1.20825 10.9689 1.45261 9.95087 1.94134Z" stroke="#00B49E" stroke-linecap="round" stroke-linejoin="round"/>
<path d="M7.64004 13.8466L6.6458 14.666C4.40474 12.8886 4.67853 12.041 4.67853 8.66602H5.43441C5.74116 10.5733 6.46472 11.4767 7.46311 12.1307C8.07811 12.5335 8.20491 13.381 7.64004 13.8466Z" stroke="#00B49E" stroke-linecap="round" stroke-linejoin="round"/>
<path d="M5 8.33398V4.33398" stroke="#00B49E" stroke-linecap="round" stroke-linejoin="round"/>
</svg>
