<svg width="24" height="25" viewBox="0 0 24 25" fill="none" xmlns="http://www.w3.org/2000/svg">
<path fill-rule="evenodd" clip-rule="evenodd" d="M10.46 1.75H13.54C15.143 1.75 16.4 1.75 17.404 1.845C18.427 1.943 19.265 2.145 20.004 2.597C20.778 3.07123 21.4288 3.72198 21.903 4.496C22.355 5.234 22.557 6.073 22.655 7.096C22.75 8.1 22.75 9.357 22.75 10.961V12.028C22.75 13.169 22.75 14.064 22.7 14.787C22.65 15.522 22.547 16.134 22.312 16.7C22.023 17.3977 21.5995 18.0316 21.0655 18.5655C20.5316 19.0995 19.8977 19.523 19.2 19.812C18.395 20.146 17.479 20.22 16.223 20.242C15.913 20.2407 15.603 20.2527 15.294 20.278C15.096 20.3 15.019 20.332 14.974 20.358C14.927 20.386 14.862 20.436 14.75 20.59C14.629 20.756 14.492 20.986 14.274 21.354L13.732 22.27C12.959 23.577 11.042 23.577 10.268 22.27L9.726 21.354C9.57822 21.0927 9.41941 20.8378 9.25 20.59C9.138 20.436 9.073 20.386 9.026 20.358C8.981 20.332 8.904 20.3 8.706 20.278C8.494 20.255 8.216 20.248 7.776 20.241C6.521 20.22 5.605 20.146 4.8 19.812C4.10234 19.523 3.46844 19.0995 2.93448 18.5655C2.40052 18.0316 1.97697 17.3977 1.688 16.7C1.453 16.134 1.349 15.522 1.299 14.787C1.25 14.064 1.25 13.169 1.25 12.027V10.961C1.25 9.357 1.25 8.101 1.345 7.096C1.443 6.073 1.645 5.234 2.097 4.496C2.57123 3.72198 3.22198 3.07123 3.996 2.597C4.734 2.145 5.573 1.943 6.596 1.845C7.6 1.75 8.857 1.75 10.461 1.75H10.46ZM6.739 3.339C5.825 3.426 5.244 3.592 4.78 3.876C4.20771 4.22658 3.72658 4.70771 3.376 5.28C3.092 5.744 2.926 6.325 2.839 7.24C2.751 8.164 2.75 9.35 2.75 11.001V12.001C2.75 13.176 2.75 14.02 2.796 14.686C2.841 15.345 2.927 15.775 3.074 16.127C3.50535 17.1683 4.33268 17.9957 5.374 18.427C5.889 18.641 6.547 18.721 7.803 18.743H7.834C8.232 18.75 8.581 18.756 8.871 18.788C9.182 18.823 9.487 18.892 9.78 19.062C10.07 19.232 10.28 19.457 10.462 19.707C10.631 19.939 10.804 20.232 11 20.563L11.559 21.507C11.6057 21.5818 11.6707 21.6435 11.7479 21.6863C11.825 21.729 11.9118 21.7515 12 21.7515C12.0882 21.7515 12.175 21.729 12.2521 21.6863C12.3293 21.6435 12.3943 21.5818 12.441 21.507L13 20.563C13.196 20.232 13.37 19.939 13.538 19.707C13.72 19.457 13.93 19.231 14.22 19.062C14.513 18.892 14.818 18.822 15.129 18.788C15.419 18.756 15.768 18.75 16.166 18.743H16.198C17.453 18.721 18.111 18.641 18.626 18.427C19.6673 17.9957 20.4947 17.1683 20.926 16.127C21.073 15.775 21.159 15.345 21.204 14.686C21.25 14.02 21.25 13.176 21.25 12.001V11.001C21.25 9.35 21.25 8.164 21.161 7.239C21.074 6.325 20.908 5.744 20.624 5.28C20.2736 4.70819 19.7928 4.22742 19.221 3.877C18.757 3.593 18.176 3.427 17.261 3.34C16.337 3.252 15.151 3.251 13.5 3.251H10.5C8.849 3.251 7.663 3.251 6.738 3.34L6.739 3.339ZM7.25 9.5C7.25 9.30109 7.32902 9.11032 7.46967 8.96967C7.61032 8.82902 7.80109 8.75 8 8.75H16C16.1989 8.75 16.3897 8.82902 16.5303 8.96967C16.671 9.11032 16.75 9.30109 16.75 9.5C16.75 9.69891 16.671 9.88968 16.5303 10.0303C16.3897 10.171 16.1989 10.25 16 10.25H8C7.80109 10.25 7.61032 10.171 7.46967 10.0303C7.32902 9.88968 7.25 9.69891 7.25 9.5ZM7.25 13C7.25 12.8011 7.32902 12.6103 7.46967 12.4697C7.61032 12.329 7.80109 12.25 8 12.25H13.5C13.6989 12.25 13.8897 12.329 14.0303 12.4697C14.171 12.6103 14.25 12.8011 14.25 13C14.25 13.1989 14.171 13.3897 14.0303 13.5303C13.8897 13.671 13.6989 13.75 13.5 13.75H8C7.80109 13.75 7.61032 13.671 7.46967 13.5303C7.32902 13.3897 7.25 13.1989 7.25 13Z" fill="#777777"/>
</svg>
