<svg width="20" height="20" viewBox="0 0 20 20" fill="none" xmlns="http://www.w3.org/2000/svg">
<path d="M3.33203 10.0007C3.33203 6.85795 3.33203 5.28661 4.30834 4.31029C5.28466 3.33398 6.856 3.33398 9.9987 3.33398C13.1414 3.33398 14.7128 3.33398 15.689 4.31029C16.6654 5.28661 16.6654 6.85795 16.6654 10.0007C16.6654 13.1433 16.6654 14.7147 15.689 15.691C14.7128 16.6673 13.1414 16.6673 9.9987 16.6673C6.856 16.6673 5.28466 16.6673 4.30834 15.691C3.33203 14.7147 3.33203 13.1433 3.33203 10.0007Z" stroke="#141B34" stroke-width="1.25"/>
<path d="M3.33203 10.9328C3.84788 10.8672 4.3694 10.8348 4.89179 10.8359C7.10174 10.7951 9.25756 11.3976 10.9746 12.536C12.567 13.5918 13.6859 15.0448 14.1654 16.6673" stroke="#141B34" stroke-width="1.25" stroke-linejoin="round"/>
<path d="M12.5 7.5H12.5075" stroke="#141B34" stroke-width="1.25" stroke-linecap="round" stroke-linejoin="round"/>
</svg>
