<svg width="19" height="16" viewBox="0 0 19 16" fill="none" xmlns="http://www.w3.org/2000/svg">
<path d="M11.8891 0.78125C10.7805 0.78125 9.88591 0.78125 9.18275 0.861582C8.45282 0.943974 7.83807 1.12249 7.34983 1.53514C6.92485 1.8956 6.70912 2.33846 6.59639 2.8589C6.4869 3.36493 6.46581 3.98355 6.46095 4.72645C6.46009 4.86303 6.52335 4.9943 6.63681 5.09138C6.75027 5.18847 6.90465 5.24342 7.06597 5.24415C7.22729 5.24488 7.38235 5.19132 7.49703 5.09527C7.61171 4.99921 7.67662 4.86852 7.67748 4.73195C7.68235 3.98149 7.70506 3.44938 7.79265 3.04497C7.87781 2.65636 8.01325 2.43046 8.21033 2.26362C8.43498 2.07343 8.75047 1.94984 9.34576 1.88187C9.95809 1.81252 10.7699 1.81115 11.9337 1.81115H12.7448C13.9094 1.81115 14.7212 1.81252 15.3336 1.88187C15.9289 1.94984 16.2435 2.07412 16.469 2.26362C16.6928 2.45381 16.8388 2.72021 16.9191 3.22486C17.0018 3.74256 17.0027 4.43053 17.0027 5.4158V10.9086C17.0027 11.8939 17.0018 12.5812 16.9191 13.1002C16.8388 13.6042 16.6928 13.8706 16.4682 14.0608C16.2435 14.251 15.9289 14.3746 15.3336 14.4425C14.7212 14.5119 13.9094 14.5133 12.7448 14.5133H11.9337C10.7699 14.5133 9.95809 14.5119 9.34495 14.4425C8.75047 14.3746 8.43498 14.2503 8.21033 14.0608C8.01325 13.8933 7.87781 13.668 7.79265 13.2794C7.70506 12.875 7.68235 12.3429 7.67748 11.5925C7.67706 11.5248 7.6609 11.4579 7.62994 11.3956C7.59898 11.3333 7.55382 11.2767 7.49703 11.2291C7.44025 11.1816 7.37295 11.1439 7.29899 11.1184C7.22503 11.0929 7.14585 11.0799 7.06597 11.0803C6.98609 11.0806 6.90708 11.0943 6.83344 11.1205C6.75981 11.1467 6.69299 11.1849 6.63681 11.233C6.58063 11.2811 6.53618 11.3381 6.50601 11.4007C6.47583 11.4633 6.46052 11.5303 6.46095 11.5979C6.46581 12.3409 6.4869 12.9595 6.59639 13.4655C6.70993 13.9859 6.92485 14.4288 7.35064 14.7893C7.83807 15.2026 8.45364 15.3797 9.18356 15.4635C9.88591 15.5432 10.7805 15.5432 11.8891 15.5432H12.7894C13.8989 15.5432 14.7926 15.5432 15.4958 15.4635C16.2257 15.3797 16.8405 15.2026 17.3287 14.7893C17.8169 14.3759 18.0262 13.8555 18.1251 13.2376C18.2192 12.6423 18.2192 11.8849 18.2192 10.9464V5.37804C18.2192 4.43946 18.2192 3.68214 18.1251 3.08685C18.027 2.46891 17.8169 1.94847 17.3287 1.53514C16.8405 1.1218 16.2257 0.944661 15.4958 0.861582C14.7926 0.78125 13.8981 0.78125 12.7894 0.78125H11.8891Z" fill="#BF1017"/>
<path d="M11.9333 7.64599C12.0946 7.64599 12.2493 7.70024 12.3634 7.79681C12.4775 7.89338 12.5416 8.02436 12.5416 8.16094C12.5416 8.29751 12.4775 8.42849 12.3634 8.52506C12.2493 8.62163 12.0946 8.67589 11.9333 8.67589H3.03392L4.62434 9.82938C4.74695 9.91824 4.82283 10.0447 4.8353 10.1809C4.84778 10.3172 4.79581 10.452 4.69085 10.5558C4.58588 10.6596 4.4365 10.7238 4.27559 10.7344C4.11467 10.745 3.95539 10.701 3.83278 10.6121L0.994191 8.5523C0.927415 8.50396 0.873804 8.44394 0.837044 8.37638C0.800285 8.30882 0.78125 8.23532 0.78125 8.16094C0.78125 8.08655 0.800285 8.01306 0.837044 7.9455C0.873804 7.87793 0.927415 7.81792 0.994191 7.76958L3.83278 5.70977C3.89349 5.66577 3.96384 5.63233 4.03982 5.61134C4.11579 5.59036 4.19591 5.58225 4.27559 5.58748C4.35526 5.59271 4.43295 5.61117 4.5042 5.64181C4.57545 5.67246 4.63887 5.71468 4.69085 5.76608C4.74282 5.81747 4.78233 5.87703 4.80711 5.94135C4.8319 6.00567 4.84148 6.07349 4.8353 6.14095C4.82913 6.2084 4.80732 6.27417 4.77112 6.33449C4.73493 6.39481 4.68505 6.4485 4.62434 6.4925L3.03473 7.64599H11.9333Z" fill="#BF1017"/>
</svg>
