<svg width="21" height="20" viewBox="0 0 21 20" fill="none" xmlns="http://www.w3.org/2000/svg">
<path fill-rule="evenodd" clip-rule="evenodd" d="M9.735 0.044755C9.60528 0.115099 0.131647 9.58835 0.0642202 9.71512C-0.0845521 9.99492 0.0331739 10.3674 0.334511 10.5705C0.471906 10.6631 0.500036 10.6653 1.57328 10.6653H2.67144V19.5293L2.76621 19.6699C2.8183 19.7472 2.92423 19.8531 3.00158 19.9052L3.14218 20H8.11469C8.51641 20 8.84207 19.6743 8.84207 19.2726V14.1688H11.4606V19.2726C11.4606 19.6743 11.7863 20 12.188 20H16.8696L17.0102 19.9052C17.0875 19.8531 17.1935 19.7472 17.2455 19.6699L17.3403 19.5293V10.6653H18.4385C19.5117 10.6653 19.5399 10.6631 19.6772 10.5705C19.9674 10.375 20.0951 9.99983 19.9614 9.73529C19.8961 9.60607 10.4255 0.129309 10.2893 0.0568402C10.1573 -0.0132953 9.85423 -0.0199214 9.735 0.044755ZM17.736 9.33173L13.8815 5.47699C11.7614 3.35688 10.0174 1.62224 10.0059 1.62224C9.99434 1.62224 8.25032 3.35688 6.1303 5.47699L2.27572 9.33173H2.90498C3.49048 9.33173 3.54403 9.33832 3.67485 9.4265C3.75219 9.47859 3.85812 9.58452 3.91021 9.66187L4.00498 9.80247V18.6665H7.58127V13.6354C7.58127 13.2337 7.90693 12.908 8.30866 12.908H11.9941C12.3958 12.908 12.7214 13.2337 12.7214 13.6354V18.6665H16.0068V9.80247L16.1015 9.66187C16.1536 9.58452 16.2596 9.47859 16.3369 9.4265C16.4677 9.33832 16.5213 9.33173 17.1068 9.33173H17.736Z" fill="black" fill-opacity="0.7"/>
</svg>
