<svg width="20" height="20" viewBox="0 0 20 20" fill="none" xmlns="http://www.w3.org/2000/svg">
<path d="M1.42846 12.5192C1.39409 12.4696 1.36105 12.4183 1.32712 12.3701C0.463697 11.0869 0.00167847 9.5757 -0.000108719 8.02902C-0.0143948 3.59598 3.72578 0 8.35079 0C12.3847 0 15.7499 2.74509 16.5383 6.38929C16.6566 6.92937 16.7164 7.4806 16.7169 8.03348C16.7169 12.471 13.1204 16.1634 8.49543 16.1634C7.76016 16.1634 6.76954 15.9424 6.22623 15.7933C5.68293 15.6442 5.14453 15.4473 5.00525 15.3942C4.86596 15.3411 4.64811 15.2866 4.47445 15.3366L1.01819 16.3357C0.987806 16.3447 0.955577 16.3454 0.924813 16.3378C0.89405 16.3302 0.865861 16.3146 0.84314 16.2925C0.820417 16.2704 0.803982 16.2427 0.795518 16.2122C0.787055 16.1816 0.786869 16.1494 0.79498 16.1188L1.58605 13.1058C1.64096 12.8826 1.64811 12.8406 1.42846 12.5192Z" fill="#BF1017"/>
<path d="M7.47584 17.1151C7.81938 17.17 8.16638 17.2006 8.51423 17.2066C10.4084 17.2066 12.1973 16.7066 13.6482 15.7691C14.5763 15.1995 15.3819 14.451 16.0183 13.5673C17.1825 12.024 17.8174 10.0624 17.8174 8.00973C17.8174 7.86999 17.8124 7.73562 17.8075 7.6008C17.8058 7.56104 17.8163 7.5217 17.8377 7.48812C17.859 7.45455 17.8902 7.42838 17.927 7.41316C17.9638 7.39794 18.0044 7.39442 18.0432 7.40307C18.0821 7.41172 18.1173 7.43213 18.1441 7.46151C19.2131 8.63111 19.8593 10.1252 19.9796 11.7051C20.0998 13.285 19.6872 14.8597 18.8075 16.1776C18.6973 16.3459 18.6348 16.4758 18.654 16.5624L19.283 19.7883C19.2888 19.819 19.2864 19.8506 19.2762 19.8801C19.2659 19.9096 19.2481 19.9359 19.2246 19.9564C19.201 19.9768 19.1725 19.9908 19.1418 19.9967C19.1112 20.0027 19.0795 20.0006 19.0499 19.9905L16.0142 18.9084C15.9222 18.872 15.8238 18.8541 15.7249 18.8558C15.6259 18.8575 15.5282 18.8787 15.4374 18.9182C14.529 19.2754 13.5241 19.495 12.5191 19.495C10.5849 19.5013 8.72163 18.7664 7.31245 17.4414C7.28335 17.4131 7.26403 17.3762 7.25728 17.3361C7.25053 17.2961 7.25669 17.2549 7.27488 17.2185C7.29307 17.1822 7.32234 17.1526 7.35847 17.134C7.3946 17.1154 7.4357 17.1088 7.47584 17.1151Z" fill="#BF1017"/>
</svg>
