<svg width="16" height="16" viewBox="0 0 16 16" fill="none" xmlns="http://www.w3.org/2000/svg">
<g clip-path="url(#clip0_15570_28802)">
<path d="M9.99404 12.6693C9.99415 13.0057 9.8671 13.3296 9.63838 13.5763C9.40965 13.823 9.09614 13.974 8.76071 13.9993L8.66071 14.0026H7.32737C6.99099 14.0027 6.667 13.8757 6.42034 13.6469C6.17369 13.4182 6.0226 13.1047 5.99737 12.7693L5.99404 12.6693H9.99404ZM7.99404 1.33594C9.20403 1.33592 10.3667 1.80587 11.2369 2.64665C12.107 3.48744 12.6166 4.63333 12.658 5.8426L12.6607 6.0026V8.51194L13.8754 10.9413C13.9284 11.0473 13.9549 11.1645 13.9527 11.283C13.9505 11.4015 13.9196 11.5177 13.8626 11.6217C13.8057 11.7256 13.7244 11.8142 13.6257 11.8798C13.527 11.9455 13.4139 11.9862 13.296 11.9986L13.2194 12.0026H2.76871C2.65015 12.0026 2.53335 11.9739 2.42832 11.9189C2.32329 11.8639 2.23316 11.7843 2.16565 11.6868C2.09814 11.5894 2.05527 11.477 2.04071 11.3593C2.02615 11.2417 2.04033 11.1222 2.08204 11.0113L2.11271 10.9413L3.32737 8.51194V6.0026C3.32737 4.76493 3.81904 3.57794 4.69421 2.70277C5.56938 1.8276 6.75636 1.33594 7.99404 1.33594Z" fill="black"/>
</g>
<defs>
<clipPath id="clip0_15570_28802">
<rect width="16" height="16" fill="white"/>
</clipPath>
</defs>
</svg>
