<svg width="21" height="20" viewBox="0 0 21 20" fill="none" xmlns="http://www.w3.org/2000/svg">
<path d="M16.5874 16.1714L18.7548 18.3388M17.6711 12.3785C17.6711 9.68524 15.4878 7.50195 12.7945 7.50195C10.1013 7.50195 7.91797 9.68524 7.91797 12.3785C7.91797 15.0718 10.1013 17.2551 12.7945 17.2551C15.4878 17.2551 17.6711 15.0718 17.6711 12.3785Z" stroke="black" stroke-width="1.2504" stroke-linecap="round" stroke-linejoin="round"/>
<path d="M2.08203 5.00237C2.19082 3.8891 2.43731 3.14036 2.99587 2.5818C3.55442 2.02325 4.30316 1.77675 5.41644 1.66797M5.41644 18.34C4.30316 18.2312 3.55442 17.9847 2.99587 17.4261C2.43731 16.8676 2.19082 16.1189 2.08203 15.0056M18.7541 5.00237C18.6453 3.8891 18.3988 3.14036 17.8402 2.5818C17.2817 2.02325 16.5329 1.77675 15.4197 1.66797M2.08203 8.33678V11.6712M12.0852 1.66797H8.75084" stroke="black" stroke-width="1.2504" stroke-linecap="round"/>
</svg>
