<svg width="21" height="20" viewBox="0 0 21 20" fill="none" xmlns="http://www.w3.org/2000/svg">
<path fill-rule="evenodd" clip-rule="evenodd" d="M18.5878 0H3.05381C1.82055 0 0.820801 0.999754 0.820801 2.23301V17.767C0.820801 19.0002 1.82055 20 3.05381 20H18.5878C19.821 20 20.8208 19.0002 20.8208 17.767V2.23301C20.8208 0.999752 19.821 0 18.5878 0ZM2.08294 2.23301C2.08294 1.69681 2.51761 1.26214 3.05381 1.26214H18.5878C19.124 1.26214 19.5587 1.69681 19.5587 2.23301V17.767C19.5587 18.3032 19.124 18.7379 18.5878 18.7379H3.05381C2.51761 18.7379 2.08294 18.3032 2.08294 17.767V2.23301Z" fill="#BF1017"/>
<path fill-rule="evenodd" clip-rule="evenodd" d="M3.05381 1.26214C2.51761 1.26214 2.08294 1.69681 2.08294 2.23301V17.767C2.08294 18.3032 2.51761 18.7379 3.05381 18.7379H18.5878C19.124 18.7379 19.5587 18.3032 19.5587 17.767V2.23301C19.5587 1.69681 19.124 1.26214 18.5878 1.26214H3.05381ZM11.4518 6.11651C11.4518 5.76798 11.1693 5.48544 10.8207 5.48544C10.4722 5.48544 10.1897 5.76798 10.1897 6.11651V9.36893H6.93725C6.58872 9.36893 6.30618 9.65147 6.30618 10C6.30618 10.3485 6.58872 10.6311 6.93725 10.6311H10.1897V13.8835C10.1897 14.232 10.4722 14.5146 10.8207 14.5146C11.1693 14.5146 11.4518 14.232 11.4518 13.8835V10.6311H14.7042C15.0528 10.6311 15.3353 10.3485 15.3353 10C15.3353 9.65147 15.0528 9.36893 14.7042 9.36893H11.4518V6.11651Z" fill="#BF1017"/>
</svg>
