<svg width="20" height="20" viewBox="0 0 20 20" fill="none" xmlns="http://www.w3.org/2000/svg">
<path d="M17.0846 8.74935V8.33268C17.0846 5.18998 17.0846 3.61864 16.1083 2.64232C15.132 1.66602 13.5606 1.66602 10.4179 1.66602H9.58464C6.44199 1.66602 4.87066 1.66602 3.89435 2.64232C2.91804 3.61862 2.91803 5.18995 2.918 8.33262L2.91797 12.0827C2.91794 14.8222 2.91794 16.192 3.67454 17.1139C3.81307 17.2828 3.96785 17.4375 4.13665 17.5761C5.05861 18.3327 6.42838 18.3327 9.16789 18.3327" stroke="#141B34" stroke-width="1.25" stroke-linecap="round" stroke-linejoin="round"/>
<path d="M6.25 5.83398H13.75" stroke="#141B34" stroke-width="1.25" stroke-linecap="round" stroke-linejoin="round"/>
<path d="M6.25 10H11.25" stroke="#141B34" stroke-width="1.25" stroke-linecap="round" stroke-linejoin="round"/>
<path d="M17.082 16.666V14.166C17.082 12.9748 15.9628 11.666 14.582 11.666C13.2013 11.666 12.082 12.9748 12.082 14.166V17.0827C12.082 17.773 12.6417 18.3327 13.332 18.3327C14.0224 18.3327 14.582 17.773 14.582 17.0827V14.166" stroke="#141B34" stroke-width="1.25" stroke-linecap="round" stroke-linejoin="round"/>
</svg>
