<svg width="25" height="24" viewBox="0 0 25 24" fill="none" xmlns="http://www.w3.org/2000/svg">
<path d="M5.75095 3.75C5.75095 3.55109 5.67193 3.36032 5.53128 3.21967C5.39062 3.07902 5.19986 3 5.00095 3C4.80203 3 4.61127 3.07902 4.47062 3.21967C4.32996 3.36032 4.25095 3.55109 4.25095 3.75V16.9395L2.53195 15.219C2.39112 15.0782 2.20011 14.9991 2.00095 14.9991C1.80178 14.9991 1.61078 15.0782 1.46995 15.219C1.32912 15.3598 1.25 15.5508 1.25 15.75C1.25 15.9492 1.32912 16.1402 1.46995 16.281L4.46995 19.2795L4.48045 19.29C4.62126 19.4273 4.81063 19.5034 5.0073 19.5017C5.20397 19.5 5.39201 19.4207 5.53045 19.281L8.53045 16.281C8.60018 16.2114 8.65551 16.1287 8.69329 16.0377C8.73106 15.9466 8.75055 15.8491 8.75061 15.7505C8.75068 15.652 8.73134 15.5544 8.69369 15.4633C8.65605 15.3722 8.60083 15.2895 8.5312 15.2197C8.46156 15.15 8.37888 15.0947 8.28786 15.0569C8.19684 15.0191 8.09927 14.9997 8.00073 14.9996C7.90218 14.9995 7.80459 15.0189 7.71352 15.0565C7.62244 15.0941 7.53968 15.1494 7.46995 15.219L5.75095 16.9395V3.75ZM11.0009 5.25C11.0009 5.05109 11.08 4.86032 11.2206 4.71967C11.3613 4.57902 11.552 4.5 11.7509 4.5H22.2509C22.4499 4.5 22.6406 4.57902 22.7813 4.71967C22.9219 4.86032 23.0009 5.05109 23.0009 5.25C23.0009 5.44891 22.9219 5.63968 22.7813 5.78033C22.6406 5.92098 22.4499 6 22.2509 6H11.7509C11.552 6 11.3613 5.92098 11.2206 5.78033C11.08 5.63968 11.0009 5.44891 11.0009 5.25ZM11.7509 9C11.552 9 11.3613 9.07902 11.2206 9.21967C11.08 9.36032 11.0009 9.55109 11.0009 9.75C11.0009 9.94891 11.08 10.1397 11.2206 10.2803C11.3613 10.421 11.552 10.5 11.7509 10.5H19.2509C19.4499 10.5 19.6406 10.421 19.7813 10.2803C19.9219 10.1397 20.0009 9.94891 20.0009 9.75C20.0009 9.55109 19.9219 9.36032 19.7813 9.21967C19.6406 9.07902 19.4499 9 19.2509 9H11.7509ZM11.7509 13.5C11.552 13.5 11.3613 13.579 11.2206 13.7197C11.08 13.8603 11.0009 14.0511 11.0009 14.25C11.0009 14.4489 11.08 14.6397 11.2206 14.7803C11.3613 14.921 11.552 15 11.7509 15H16.2509C16.4499 15 16.6406 14.921 16.7813 14.7803C16.9219 14.6397 17.0009 14.4489 17.0009 14.25C17.0009 14.0511 16.9219 13.8603 16.7813 13.7197C16.6406 13.579 16.4499 13.5 16.2509 13.5H11.7509ZM11.7509 18C11.552 18 11.3613 18.079 11.2206 18.2197C11.08 18.3603 11.0009 18.5511 11.0009 18.75C11.0009 18.9489 11.08 19.1397 11.2206 19.2803C11.3613 19.421 11.552 19.5 11.7509 19.5H13.2509C13.4499 19.5 13.6406 19.421 13.7813 19.2803C13.9219 19.1397 14.0009 18.9489 14.0009 18.75C14.0009 18.5511 13.9219 18.3603 13.7813 18.2197C13.6406 18.079 13.4499 18 13.2509 18H11.7509Z" fill="#BF1017"/>
</svg>
