<svg width="18" height="17" viewBox="0 0 18 17" fill="none" xmlns="http://www.w3.org/2000/svg">
<path d="M9.00026 13.8441C8.57127 13.8441 8.14303 13.7317 7.76054 13.5068L0.364255 9.1591C0.00876559 8.95042 -0.105981 8.49927 0.107013 8.15098C0.319257 7.80195 0.779744 7.69027 1.13598 7.89895L8.53152 12.2467C8.82026 12.4157 9.1795 12.4157 9.46824 12.2467L16.8638 7.89895C17.2193 7.69027 17.6798 7.80269 17.8928 8.15098C18.1057 8.49927 17.991 8.95042 17.6355 9.1591L10.24 13.5068C9.85748 13.7317 9.4285 13.8441 9.00026 13.8441ZM10.24 16.6627L17.6355 12.315C17.991 12.1063 18.1057 11.6552 17.8928 11.3069C17.6798 10.9586 17.2193 10.8462 16.8638 11.0548L9.46749 15.4026C9.1795 15.5716 8.82026 15.5716 8.53152 15.4026L1.13673 11.0548C0.780493 10.8454 0.320007 10.9586 0.107763 11.3069C-0.105231 11.6552 0.00951556 12.1063 0.365005 12.315L7.76054 16.6627C8.14303 16.8883 8.57202 17 9.00101 17C9.43 17 9.85898 16.8883 10.2407 16.6627H10.24ZM9.00026 4.28894L12.9811 1.94865L10.24 0.337267C9.47499 -0.112422 8.52477 -0.112422 7.75979 0.337267L5.01862 1.94865L8.99951 4.28894H9.00026ZM17.6363 4.68499L14.4391 2.80541L10.4582 5.1457L14.7271 7.655L17.6363 5.94515C17.862 5.81215 18 5.57335 18 5.31544C18 5.05753 17.862 4.81725 17.6363 4.68499ZM7.5423 5.1457L3.56141 2.80541L0.364255 4.68499C0.138512 4.81799 0.00051582 5.05679 0.00051582 5.3147C0.00051582 5.57261 0.138512 5.81215 0.364255 5.94442L3.27342 7.65426L7.5423 5.1457ZM9.00026 6.00246L4.73138 8.51176L7.76054 10.2921C8.14303 10.517 8.57127 10.6294 9.00026 10.6294C9.42924 10.6294 9.85748 10.517 10.24 10.2921L13.2691 8.51176L9.00026 6.00246Z" fill="#BF1017"/>
</svg>
