<svg width="16" height="16" viewBox="0 0 16 16" fill="none" xmlns="http://www.w3.org/2000/svg">
<path d="M13.3281 1.33398H2.66146C1.92146 1.33398 1.32812 1.92732 1.32812 2.66732V10.0007C1.32812 10.7407 1.92146 11.334 2.66146 11.334H5.32812V14.6673L7.99479 13.334L10.6615 14.6673V11.334H13.3281C14.0681 11.334 14.6615 10.7407 14.6615 10.0007V2.66732C14.6615 1.92732 14.0681 1.33398 13.3281 1.33398ZM13.3281 10.0007H2.66146V8.66732H13.3281V10.0007ZM13.3281 6.66732H2.66146V3.33398C2.66146 2.96732 2.96146 2.66732 3.32812 2.66732H12.6615C13.0281 2.66732 13.3281 2.96732 13.3281 3.33398V6.66732Z" fill="black"/>
</svg>
