<svg width="16" height="16" viewBox="0 0 16 16" fill="none" xmlns="http://www.w3.org/2000/svg">
<path d="M5.0026 5.33594C5.53304 5.33594 6.04174 5.12522 6.41682 4.75015C6.79189 4.37508 7.0026 3.86637 7.0026 3.33594C7.0026 2.8055 6.79189 2.2968 6.41682 1.92172C6.04174 1.54665 5.53304 1.33594 5.0026 1.33594C4.47217 1.33594 3.96346 1.54665 3.58839 1.92172C3.21332 2.2968 3.0026 2.8055 3.0026 3.33594C3.0026 3.86637 3.21332 4.37508 3.58839 4.75015C3.96346 5.12522 4.47217 5.33594 5.0026 5.33594ZM1.33594 7.18127C1.33594 6.52927 1.86327 6.0026 2.5146 6.0026H5.6926C5.45821 6.40782 5.33516 6.86782 5.33594 7.33594C5.33549 7.71433 5.41577 8.08846 5.57144 8.43335C5.7271 8.77824 5.95455 9.08595 6.2386 9.33594H5.5146C5.13887 9.33595 4.77208 9.45058 4.4632 9.66452C4.15432 9.87846 3.91805 10.1815 3.78594 10.5333C2.78727 10.2893 2.16794 9.7446 1.80327 9.13794C1.33594 8.35994 1.33594 7.55994 1.33594 7.4206V7.18127ZM10.6693 7.33594C10.6701 6.86781 10.547 6.4078 10.3126 6.0026H13.4906C14.1426 6.0026 14.6693 6.52994 14.6693 7.18127V7.42127C14.6693 7.55927 14.6693 8.35994 14.2026 9.13794C13.8373 9.7446 13.2179 10.2893 12.2193 10.5333C12.0872 10.1815 11.851 9.87835 11.5421 9.6644C11.2332 9.45045 10.8664 9.33586 10.4906 9.33594H9.7666C10.0507 9.08595 10.2781 8.77824 10.4338 8.43335C10.5894 8.08846 10.6697 7.71433 10.6693 7.33594ZM13.0026 3.33594C13.0026 3.86637 12.7919 4.37508 12.4168 4.75015C12.0417 5.12522 11.533 5.33594 11.0026 5.33594C10.4722 5.33594 9.96346 5.12522 9.58839 4.75015C9.21332 4.37508 9.0026 3.86637 9.0026 3.33594C9.0026 2.8055 9.21332 2.2968 9.58839 1.92172C9.96346 1.54665 10.4722 1.33594 11.0026 1.33594C11.533 1.33594 12.0417 1.54665 12.4168 1.92172C12.7919 2.2968 13.0026 2.8055 13.0026 3.33594ZM4.33594 11.1813C4.33594 10.5293 4.86327 10.0026 5.5146 10.0026H10.4906C11.1419 10.0026 11.6693 10.5299 11.6693 11.1813V11.4213C11.6693 11.5593 11.6693 12.3599 11.2026 13.1379C10.7073 13.9606 9.7446 14.6693 8.0026 14.6693C6.2606 14.6693 5.29727 13.9606 4.8026 13.1379C4.33594 12.3599 4.33594 11.5599 4.33594 11.4206V11.1813ZM8.0026 9.33594C8.26525 9.33594 8.52532 9.28421 8.76797 9.1837C9.01062 9.08319 9.2311 8.93587 9.41682 8.75015C9.60253 8.56443 9.74985 8.34396 9.85036 8.1013C9.95087 7.85865 10.0026 7.59858 10.0026 7.33594C10.0026 7.07329 9.95087 6.81322 9.85036 6.57057C9.74985 6.32792 9.60253 6.10744 9.41682 5.92172C9.2311 5.73601 9.01062 5.58869 8.76797 5.48818C8.52532 5.38767 8.26525 5.33594 8.0026 5.33594C7.47217 5.33594 6.96346 5.54665 6.58839 5.92172C6.21332 6.2968 6.0026 6.8055 6.0026 7.33594C6.0026 7.86637 6.21332 8.37508 6.58839 8.75015C6.96346 9.12522 7.47217 9.33594 8.0026 9.33594Z" fill="black"/>
</svg>
