<svg width="21" height="20" viewBox="0 0 21 20" fill="none" xmlns="http://www.w3.org/2000/svg">
<path d="M16.7852 16.1714L18.9525 18.3388M17.8689 12.3785C17.8689 9.68524 15.6856 7.50195 12.9923 7.50195C10.299 7.50195 8.11572 9.68524 8.11572 12.3785C8.11572 15.0718 10.299 17.2551 12.9923 17.2551C15.6856 17.2551 17.8689 15.0718 17.8689 12.3785Z" stroke="#BF1017" stroke-width="1.2504" stroke-linecap="round" stroke-linejoin="round"/>
<path d="M2.28046 5.00237C2.38924 3.8891 2.63574 3.14036 3.19429 2.5818C3.75285 2.02325 4.50159 1.77675 5.61486 1.66797M5.61486 18.34C4.50159 18.2312 3.75285 17.9847 3.19429 17.4261C2.63574 16.8676 2.38924 16.1189 2.28046 15.0056M18.9525 5.00237C18.8437 3.8891 18.5972 3.14036 18.0386 2.5818C17.4801 2.02325 16.7314 1.77675 15.6181 1.66797M2.28046 8.33678V11.6712M12.2837 1.66797H8.94927" stroke="#BF1017" stroke-width="1.2504" stroke-linecap="round"/>
</svg>
