<svg width="16" height="16" viewBox="0 0 16 16" fill="none" xmlns="http://www.w3.org/2000/svg">
<path d="M14.213 4.76028L13.8839 4.18921C13.635 3.75732 13.5106 3.54138 13.2989 3.45527C13.0872 3.36916 12.8477 3.43711 12.3688 3.573L11.5554 3.80214C11.2496 3.87264 10.9288 3.83264 10.6497 3.68921L10.4251 3.55963C10.1857 3.4063 10.0016 3.18024 9.89963 2.91451L9.67704 2.24959C9.53064 1.80958 9.45744 1.58957 9.28317 1.46373C9.10897 1.33789 8.8775 1.33789 8.41457 1.33789H7.67137C7.2085 1.33789 6.97703 1.33789 6.80277 1.46373C6.62853 1.58957 6.55534 1.80958 6.40896 2.24959L6.18632 2.91451C6.0844 3.18024 5.90027 3.4063 5.66088 3.55963L5.43629 3.68921C5.15713 3.83264 4.83636 3.87264 4.53062 3.80214L3.71713 3.573C3.23824 3.43711 2.9988 3.36916 2.78708 3.45527C2.57536 3.54138 2.45093 3.75732 2.20207 4.18921L1.87301 4.76028C1.63974 5.16511 1.5231 5.36753 1.54574 5.58301C1.56837 5.79849 1.72452 5.97214 2.03681 6.31943L2.72417 7.08788C2.89217 7.30055 3.01144 7.67122 3.01144 8.00448C3.01144 8.33788 2.89221 8.70842 2.72419 8.92115L2.03681 9.68962C1.72452 10.0369 1.56838 10.2106 1.54574 10.4261C1.5231 10.6415 1.63974 10.8439 1.87301 11.2487L2.20206 11.8198C2.45092 12.2517 2.57536 12.4677 2.78708 12.5537C2.9988 12.6399 3.23825 12.572 3.71715 12.436L4.53059 12.2069C4.83639 12.1363 5.15721 12.1764 5.43641 12.3199L5.66097 12.4495C5.90031 12.6028 6.08439 12.8288 6.1863 13.0945L6.40896 13.7595C6.55534 14.1995 6.62853 14.4195 6.80277 14.5454C6.97703 14.6712 7.2085 14.6712 7.67137 14.6712H8.41457C8.8775 14.6712 9.10897 14.6712 9.28317 14.5454C9.45744 14.4195 9.53064 14.1995 9.67704 13.7595L9.8997 13.0945C10.0016 12.8288 10.1856 12.6028 10.425 12.4495L10.6496 12.3199C10.9288 12.1764 11.2496 12.1363 11.5554 12.2069L12.3688 12.436C12.8477 12.572 13.0872 12.6399 13.2989 12.5537C13.5106 12.4677 13.635 12.2517 13.8839 11.8198L14.213 11.2487C14.4462 10.8439 14.5628 10.6415 14.5402 10.4261C14.5176 10.2106 14.3614 10.0369 14.0492 9.68962L13.3618 8.92115C13.1938 8.70842 13.0745 8.33788 13.0745 8.00448C13.0745 7.67122 13.1938 7.30055 13.3618 7.08788L14.0492 6.31943C14.3614 5.97214 14.5176 5.79849 14.5402 5.58301C14.5628 5.36753 14.4462 5.16511 14.213 4.76028Z" stroke="#141B34" stroke-linecap="round"/>
<path d="M10.3463 7.99935C10.3463 9.28802 9.30167 10.3327 8.013 10.3327C6.72433 10.3327 5.67969 9.28802 5.67969 7.99935C5.67969 6.71068 6.72433 5.66602 8.013 5.66602C9.30167 5.66602 10.3463 6.71068 10.3463 7.99935Z" stroke="#141B34"/>
</svg>
