<svg width="20" height="20" viewBox="0 0 20 20" fill="none" xmlns="http://www.w3.org/2000/svg">
<path d="M10.418 2.5031C9.67205 2.49199 8.92188 2.51074 8.19247 2.55923C4.70662 2.79094 1.92998 5.60698 1.7015 9.14225C1.65679 9.83408 1.65679 10.5506 1.7015 11.2424C1.78472 12.53 2.35416 13.7222 3.02456 14.7288C3.41381 15.4336 3.15692 16.3132 2.75147 17.0815C2.45914 17.6355 2.31297 17.9125 2.43033 18.1126C2.5477 18.3127 2.80985 18.3191 3.33416 18.3318C4.37102 18.3571 5.0702 18.0631 5.6252 17.6538C5.93997 17.4218 6.09736 17.3057 6.20583 17.2923C6.3143 17.279 6.52778 17.3669 6.95464 17.5427C7.3383 17.7007 7.78377 17.7982 8.19247 17.8254C9.3793 17.9043 10.6209 17.9045 11.8101 17.8254C15.296 17.5937 18.0726 14.7777 18.3011 11.2424C18.3364 10.6967 18.3438 10.1356 18.3235 9.58333" stroke="#777777" stroke-width="1.5" stroke-linecap="round" stroke-linejoin="round"/>
<path d="M7.08203 12.5007H12.9154M7.08203 8.33398H9.9987" stroke="#777777" stroke-width="1.5" stroke-linecap="round" stroke-linejoin="round"/>
<path d="M12.5 4.58268H18.3333M15.4167 1.66602V7.49935" stroke="#777777" stroke-width="1.5" stroke-linecap="round" stroke-linejoin="round"/>
</svg>
