<svg width="16" height="16" viewBox="0 0 16 16" fill="none" xmlns="http://www.w3.org/2000/svg">
<path d="M7.99609 0.667969L1.99609 3.33464V7.33463C1.99609 11.0346 4.55609 14.4946 7.99609 15.3346C11.4361 14.4946 13.9961 11.0346 13.9961 7.33463V3.33464L7.99609 0.667969ZM7.99609 3.33464C8.52653 3.33464 9.03523 3.54535 9.41031 3.92042C9.78538 4.29549 9.99609 4.8042 9.99609 5.33464C9.99609 5.86507 9.78538 6.37378 9.41031 6.74885C9.03523 7.12392 8.52653 7.33463 7.99609 7.33463C7.46566 7.33463 6.95695 7.12392 6.58188 6.74885C6.20681 6.37378 5.99609 5.86507 5.99609 5.33464C5.99609 4.8042 6.20681 4.29549 6.58188 3.92042C6.95695 3.54535 7.46566 3.33464 7.99609 3.33464ZM11.4161 11.3346C10.6083 12.5711 9.40131 13.4934 7.99609 13.948C6.59088 13.4934 5.38384 12.5711 4.57609 11.3346C4.34943 11.0013 4.15609 10.668 3.99609 10.3146C3.99609 9.21463 5.80276 8.31464 7.99609 8.31464C10.1894 8.31464 11.9961 9.19464 11.9961 10.3146C11.8361 10.668 11.6428 11.0013 11.4161 11.3346Z" fill="black"/>
</svg>
