<svg width="18" height="19" viewBox="0 0 18 19" fill="none" xmlns="http://www.w3.org/2000/svg">
<path d="M6.39258 15.1504C6.42872 15.6656 6.64708 16.1529 7.01465 16.5205C7.41785 16.9237 7.96494 17.1504 8.53516 17.1504C9.10537 17.1504 9.65246 16.9237 10.0557 16.5205C10.4232 16.1529 10.6416 15.6656 10.6777 15.1504H12.3818C12.3441 16.1168 11.9443 17.0362 11.2578 17.7227C10.5358 18.4447 9.55624 18.8496 8.53516 18.8496C7.51407 18.8496 6.53451 18.4447 5.8125 17.7227C5.12601 17.0362 4.72623 16.1168 4.68848 15.1504H6.39258Z" fill="#141B34" stroke="#F7F7F7" stroke-width="0.3"/>
<path d="M8.53711 0.150391C8.7625 0.150421 8.97832 0.240036 9.1377 0.399414C9.29706 0.558814 9.38672 0.774594 9.38672 1C9.38672 1.22541 9.29706 1.44119 9.1377 1.60059C8.97832 1.75996 8.7625 1.84958 8.53711 1.84961C8.25806 1.84961 7.77651 1.89134 7.24023 2.0166L7.00781 2.0752C6.37463 2.24649 5.76986 2.51774 5.3418 2.90332C4.19256 3.94003 3.74023 5.34059 3.74023 7.78809C3.74021 9.26003 3.00445 10.6736 2.34473 11.7158L2.06934 12.1387C1.90088 12.3924 1.83991 12.6462 1.85156 12.8184C1.85684 12.8967 1.87587 12.9471 1.89453 12.9795V12.9805C1.91464 13.0157 1.94931 13.0529 2.01758 13.0898H2.01855C2.73384 13.4723 3.7982 13.7462 5.01074 13.918H5.01172C5.88807 14.0356 6.76995 14.1084 7.65332 14.1367L8.53711 14.1504C8.7625 14.1504 8.97832 14.24 9.1377 14.3994C9.29706 14.5588 9.38672 14.7746 9.38672 15C9.38672 15.2254 9.29706 15.4412 9.1377 15.6006C8.97832 15.76 8.7625 15.8496 8.53711 15.8496C7.41427 15.8496 6.06562 15.7853 4.77246 15.6016C3.49614 15.4194 2.19556 15.1124 1.2168 14.5898C0.616633 14.269 0.287757 13.7417 0.185547 13.1768L0.155273 12.9326C0.117443 12.3907 0.273929 11.8492 0.537109 11.3877L0.655273 11.1953C1.37153 10.1224 2.04 8.90318 2.04004 7.78809C2.04004 5.14439 2.52876 3.15073 4.20312 1.6416C4.90398 1.00938 5.79058 0.644291 6.56152 0.43457H6.5625C7.20594 0.256168 7.86948 0.160832 8.53711 0.150391Z" fill="#141B34" stroke="#F7F7F7" stroke-width="0.3"/>
<path d="M8.99902 0.150391C9.66698 0.160763 10.3309 0.256072 10.9746 0.43457H10.9756C11.7465 0.644291 12.6331 1.00938 13.334 1.6416C15.0083 3.15072 15.4971 5.14442 15.4971 7.78809C15.4971 8.7637 16.0086 9.81885 16.6162 10.7861L16.8809 11.1953C17.2145 11.6948 17.4251 12.3134 17.3818 12.9326H17.3809C17.3396 13.5457 17.0461 14.1432 16.4443 14.5176L16.3203 14.5898C15.3415 15.1124 14.041 15.4194 12.7646 15.6016C11.4704 15.7853 10.1229 15.8496 9 15.8496C8.77457 15.8496 8.55882 15.76 8.39941 15.6006C8.24001 15.4412 8.15039 15.2254 8.15039 15C8.15039 14.7746 8.24001 14.5588 8.39941 14.3994C8.5389 14.2599 8.72143 14.1736 8.91602 14.1543L9 14.1504C10.1789 14.1525 11.357 14.0748 12.5254 13.918H12.5264C13.7389 13.7462 14.8033 13.4723 15.5186 13.0898H15.5195C15.5877 13.0529 15.6225 13.0156 15.6426 12.9805L15.6436 12.9775C15.6701 12.9283 15.6826 12.8732 15.6836 12.8174L15.6855 12.8184C15.6972 12.6462 15.6362 12.3924 15.4678 12.1387L15.1924 11.7158C14.5326 10.6736 13.7969 9.26005 13.7969 7.78809C13.7969 5.34059 13.3445 3.94003 12.1953 2.90332C11.8207 2.56586 11.3105 2.31649 10.7646 2.14453L10.5293 2.0752C9.90208 1.90361 9.31886 1.84961 9 1.84961C8.77457 1.84961 8.55882 1.75999 8.39941 1.60059C8.24001 1.44118 8.15039 1.22543 8.15039 1C8.15039 0.774566 8.24001 0.55882 8.39941 0.399414C8.55859 0.240238 8.77394 0.150649 8.99902 0.150391Z" fill="#141B34" stroke="#F7F7F7" stroke-width="0.3"/>
<path d="M11.1836 1.68C11.1836 2.375 9.78759 1.722 8.68359 1.722C7.57959 1.722 6.18359 2.375 6.18359 1.679C6.18359 0.984 7.18359 0 8.68359 0C10.1836 0 11.1836 0.984 11.1836 1.68Z" fill="#141B34"/>
</svg>
