<svg width="18" height="19" viewBox="0 0 18 19" fill="none" xmlns="http://www.w3.org/2000/svg">
<path d="M3.36581 9.35375C4.19361 9.803 5.00191 10.145 5.78697 10.7938C6.13039 11.0863 6.6785 11.0758 6.93419 10.6888L7.39383 9.83C7.61427 9.4025 7.5228 8.95025 7.16513 8.70425C6.71074 8.26925 4.85345 7.82975 3.63949 8.04725C2.97515 8.09675 2.75771 9.05 3.36506 9.35375H3.36581ZM4.50028 8.75C5.67375 8.7575 6.36733 9.06575 6.74149 9.32225C6.78498 9.353 6.75798 9.428 6.73099 9.48125L6.32084 10.247C5.48554 9.59075 4.69898 9.19775 3.87643 8.777C4.09613 8.75675 4.30308 8.7515 4.49953 8.75H4.50028ZM6.99717 6.6755L7.78823 7.18175C8.17514 7.3625 8.67602 7.1675 8.82598 6.76475C9.01343 6.29825 9.54131 5.378 10.1577 4.89275C10.7395 4.4795 10.4771 3.428 9.71676 3.512C8.42633 3.632 7.2851 4.67975 6.6995 5.53925C6.43106 5.91275 6.58178 6.482 6.99717 6.6755ZM9.72801 4.2185C9.73176 4.22825 9.73251 4.27325 9.69427 4.30325C8.90021 4.928 8.32435 6.0035 8.1444 6.524C8.1444 6.524 7.33684 5.96975 7.31885 5.9615C7.85197 5.1785 8.82148 4.34825 9.72801 4.2185ZM17.9993 15.875C17.9993 14.8415 17.1587 14 16.1247 14C16.0197 14 15.9185 14.0142 15.818 14.0308C15.5166 13.3775 14.9632 12.8825 14.2989 12.65L16.2064 2.474C16.3422 1.75325 16.9248 1.25 17.6251 1.25C17.832 1.25 18 1.082 18 0.875C18 0.668 17.832 0.5 17.6251 0.5C16.5589 0.5 15.6726 1.25525 15.4701 2.336L13.5633 12.5098C13.5228 12.5075 13.4831 12.5 13.4419 12.5H11.3514C10.3174 12.5 9.38159 13.1097 8.94295 14.0322C8.83948 14.0142 8.73525 14 8.62728 14C7.59328 14 6.75273 14.8415 6.75273 15.875C6.75273 16.9085 7.59328 17.75 8.62728 17.75C9.53306 17.75 10.2896 17.105 10.4636 16.25H14.2884C14.4624 17.105 15.2197 17.75 16.1247 17.75C17.1587 17.75 17.9993 16.9085 17.9993 15.875ZM11.3506 13.25H13.4411C14.1564 13.25 14.8065 13.667 15.1185 14.2985C14.6986 14.5678 14.3911 14.9952 14.2884 15.5H10.4636C10.3616 14.9983 10.0572 14.5715 9.64103 14.3022C9.96645 13.6655 10.6255 13.25 11.3506 13.25ZM8.62653 17C8.00643 17 7.5018 16.4952 7.5018 15.875C7.5018 15.2548 8.00643 14.75 8.62653 14.75C9.24663 14.75 9.75126 15.2548 9.75126 15.875C9.75126 16.4952 9.24663 17 8.62653 17ZM16.1247 17C15.5046 17 15 16.4952 15 15.875C15 15.2548 15.5046 14.75 16.1247 14.75C16.7448 14.75 17.2494 15.2548 17.2494 15.875C17.2494 16.4952 16.7448 17 16.1247 17ZM5.27259 17.75C5.34683 16.8507 5.63775 15.152 6.02991 14.1357C6.13413 13.868 6.04791 13.571 5.81696 13.3962C5.57927 13.2177 5.26135 13.2177 5.0259 13.3962C4.52728 13.7765 4.13437 14.2542 3.8247 14.7582C3.38005 13.781 2.74946 13.1375 2.21484 12.674C1.7687 12.2585 1.00538 12.7325 1.19509 13.3153C1.30306 13.6932 1.40578 14.0487 1.48976 14.402C1.42528 14.3367 1.3608 14.27 1.29706 14.2085C0.799931 13.6932 -0.138091 14.2107 0.0171217 14.9045C0.0681093 15.1857 0.170834 15.521 0.288556 15.9103C0.459514 16.4728 0.656716 17.1448 0.72345 17.75H0.378534C0.171584 17.75 0.00362494 17.918 0.00362494 18.125C0.00362494 18.332 0.171584 18.5 0.378534 18.5H17.6243C17.8313 18.5 17.9993 18.332 17.9993 18.125C17.9993 17.918 17.8313 17.75 17.6243 17.75H5.27259ZM2.03188 13.5223C2.53126 14.003 3.05838 14.672 3.36506 15.6567C3.18885 16.067 3.05838 16.4653 2.96316 16.8193C2.83644 16.4143 2.68197 16.058 2.50802 15.743C2.50802 15.7385 2.50952 15.734 2.50802 15.7295C2.33706 14.6555 2.21184 14.1605 2.03188 13.5223ZM1.48526 17.75C1.42003 17.0525 1.19359 16.3085 1.00613 15.692C0.898907 15.3403 0.798432 15.0072 0.776687 14.75C1.47327 15.419 2.14735 16.247 2.42404 17.75H1.48526ZM3.52327 17.75C3.66424 16.9737 4.08713 15.2787 5.20061 14.2302C4.82945 15.3672 4.58426 16.9002 4.51978 17.75H3.52327Z" fill="#BF1017"/>
</svg>
