<svg width="12" height="16" viewBox="0 0 12 16" fill="none" xmlns="http://www.w3.org/2000/svg">
<path d="M5.25 11.75H6.75V7.25H5.25V11.75ZM6 5.75C6.2125 5.75 6.39075 5.678 6.53475 5.534C6.67875 5.39 6.7505 5.212 6.75 5C6.75 4.7875 6.678 4.60925 6.534 4.46525C6.39 4.32125 6.212 4.2495 6 4.25C5.7875 4.25 5.60925 4.322 5.46525 4.466C5.32125 4.61 5.2495 4.788 5.25 5C5.25 5.2125 5.322 5.39075 5.466 5.53475C5.61 5.67875 5.788 5.7505 6 5.75ZM6 15.5C4.2625 15.0625 2.828 14.0655 1.6965 12.509C0.565 10.9525 -0.000499669 9.2245 3.31272e-07 7.325V2.75L6 0.5L12 2.75V7.325C12 9.225 11.4342 10.9532 10.3027 12.5097C9.17125 14.0662 7.737 15.063 6 15.5Z" fill="black"/>
</svg>
