<svg width="16" height="16" viewBox="0 0 16 16" fill="none" xmlns="http://www.w3.org/2000/svg">
<path d="M7.9974 2.66797C8.70464 2.66797 9.38292 2.94892 9.88301 3.44902C10.3831 3.94911 10.6641 4.62739 10.6641 5.33464C10.6641 6.04188 10.3831 6.72016 9.88301 7.22025C9.38292 7.72035 8.70464 8.0013 7.9974 8.0013C7.29015 8.0013 6.61187 7.72035 6.11178 7.22025C5.61168 6.72016 5.33073 6.04188 5.33073 5.33464C5.33073 4.62739 5.61168 3.94911 6.11178 3.44902C6.61187 2.94892 7.29015 2.66797 7.9974 2.66797ZM7.9974 9.33464C10.9441 9.33464 13.3307 10.528 13.3307 12.0013V13.3346H2.66406V12.0013C2.66406 10.528 5.05073 9.33464 7.9974 9.33464Z" fill="black"/>
</svg>
