<svg width="23" height="16" viewBox="0 0 23 16" fill="none" xmlns="http://www.w3.org/2000/svg">
<path d="M5.61625 3.2325C6.50888 3.2325 7.2325 2.50888 7.2325 1.61625C7.2325 0.72362 6.50888 0 5.61625 0C4.72362 0 4 0.72362 4 1.61625C4 2.50888 4.72362 3.2325 5.61625 3.2325Z" fill="#BF1017"/>
<path d="M5.61625 15.4161C6.50888 15.4161 7.2325 14.6925 7.2325 13.7998C7.2325 12.9072 6.50888 12.1836 5.61625 12.1836C4.72362 12.1836 4 12.9072 4 13.7998C4 14.6925 4.72362 15.4161 5.61625 15.4161Z" fill="#BF1017"/>
<path d="M5.61625 9.3243C6.50888 9.3243 7.2325 8.60068 7.2325 7.70805C7.2325 6.81542 6.50888 6.0918 5.61625 6.0918C4.72362 6.0918 4 6.81542 4 7.70805C4 8.60068 4.72362 9.3243 5.61625 9.3243Z" fill="#BF1017"/>
<path d="M18.6707 0H9.7191C9.30712 0 8.97314 0.333977 8.97314 0.745958V2.48658C8.97314 2.89856 9.30712 3.23254 9.7191 3.23254H18.6707C19.0827 3.23254 19.4167 2.89856 19.4167 2.48658V0.745958C19.4167 0.333977 19.0827 0 18.6707 0Z" fill="#BF1017"/>
<path d="M18.6707 12.1836H9.7191C9.30712 12.1836 8.97314 12.5176 8.97314 12.9296V14.6702C8.97314 15.0822 9.30712 15.4161 9.7191 15.4161H18.6707C19.0827 15.4161 19.4167 15.0822 19.4167 14.6702V12.9296C19.4167 12.5176 19.0827 12.1836 18.6707 12.1836Z" fill="#BF1017"/>
<path d="M18.6707 6.0918H9.7191C9.30712 6.0918 8.97314 6.42577 8.97314 6.83776V8.57838C8.97314 8.99036 9.30712 9.32434 9.7191 9.32434H18.6707C19.0827 9.32434 19.4167 8.99036 19.4167 8.57838V6.83776C19.4167 6.42577 19.0827 6.0918 18.6707 6.0918Z" fill="#BF1017"/>
</svg>
