<svg width="20" height="20" viewBox="0 0 20 20" fill="none" xmlns="http://www.w3.org/2000/svg">
<path d="M1.66797 9.16732C1.66797 6.41746 1.66797 5.04253 2.52224 4.18826C3.37651 3.33398 4.75144 3.33398 7.5013 3.33398H8.33464C11.0845 3.33398 12.4594 3.33398 13.3137 4.18826C14.168 5.04253 14.168 6.41746 14.168 9.16732V10.834C14.168 13.5838 14.168 14.9587 13.3137 15.8131C12.4594 16.6673 11.0845 16.6673 8.33464 16.6673H7.5013C4.75144 16.6673 3.37651 16.6673 2.52224 15.8131C1.66797 14.9587 1.66797 13.5838 1.66797 10.834V9.16732Z" stroke="#141B34" stroke-width="1.25"/>
<path d="M14.168 7.42089L14.2729 7.33432C16.0361 5.87954 16.9176 5.15215 17.6261 5.50337C18.3346 5.85458 18.3346 7.01898 18.3346 9.34777V10.6509C18.3346 12.9798 18.3346 14.1441 17.6261 14.4954C16.9176 14.8465 16.0361 14.1192 14.2729 12.6644L14.168 12.5778" stroke="#141B34" stroke-width="1.25" stroke-linecap="round"/>
<path d="M9.58203 9.16602C10.2724 9.16602 10.832 8.60637 10.832 7.91602C10.832 7.22566 10.2724 6.66602 9.58203 6.66602C8.89168 6.66602 8.33203 7.22566 8.33203 7.91602C8.33203 8.60637 8.89168 9.16602 9.58203 9.16602Z" stroke="#141B34" stroke-width="1.25"/>
</svg>
