<svg width="15" height="14" viewBox="0 0 15 14" fill="none" xmlns="http://www.w3.org/2000/svg">
<path fill-rule="evenodd" clip-rule="evenodd" d="M7.53725 0.308762C7.25675 0.193262 6.93425 0.257012 6.71975 0.471512L3.5 4.00101H1.25C0.8375 4.00101 0.5 4.33926 0.5 4.75101V9.25098C0.5 9.66348 0.8375 10.001 1.25 10.001H3.5L6.71975 13.532C6.93425 13.7465 7.25675 13.811 7.53725 13.6947C7.81775 13.5785 8 13.3047 8 13.001V1.00101C8 0.698762 7.81775 0.423512 7.53725 0.308762ZM9.5 1.75094V3.25094C11.5677 3.25094 13.25 4.93394 13.25 7.00098C13.25 9.06873 11.5677 10.751 9.5 10.751V12.251C12.395 12.251 14.75 9.89673 14.75 7.00098C14.75 4.10669 12.395 1.75094 9.5 1.75094ZM9.5 4.75094C10.7405 4.75094 11.75 5.76123 11.75 7.00098C11.75 8.24223 10.7405 9.25098 9.5 9.25098V7.75098C9.91325 7.75098 10.25 7.41423 10.25 7.00098C10.25 6.58773 9.91325 6.25098 9.5 6.25098V4.75094Z" fill="#545454"/>
</svg>
