<svg width="19" height="18" viewBox="0 0 19 18" fill="none" xmlns="http://www.w3.org/2000/svg">
<path fill-rule="evenodd" clip-rule="evenodd" d="M17.2741 8.3405H14.9087C13.6583 8.3405 12.7302 9.27035 12.7302 10.3161C12.7302 11.3619 13.6583 12.2917 14.9078 12.2917H17.2943C17.4752 12.2803 17.5533 12.1582 17.5595 12.0845V8.54772C17.5533 8.47397 17.4752 8.35192 17.2943 8.34138H17.2732L17.2741 8.3405ZM17.2092 7.02344C17.2671 7.02344 17.3233 7.02344 17.376 7.02695C18.1399 7.07349 18.8168 7.65036 18.8739 8.4564C18.8774 8.50909 18.8774 8.56616 18.8774 8.61884V12.0134C18.8774 12.066 18.8774 12.1231 18.8739 12.1758C18.8168 12.9818 18.1399 13.5587 17.3751 13.6061C17.3233 13.6088 17.2671 13.6088 17.2083 13.6088H14.9096C13.0262 13.6088 11.4141 12.1793 11.4141 10.3161C11.4141 8.45289 13.0262 7.02344 14.9087 7.02344H17.2092Z" fill="black"/>
<path d="M15.5842 10.3175C15.5842 10.5504 15.4917 10.7737 15.327 10.9384C15.1624 11.103 14.939 11.1955 14.7062 11.1955C14.4733 11.1955 14.25 11.103 14.0853 10.9384C13.9206 10.7737 13.8281 10.5504 13.8281 10.3175C13.8281 10.0846 13.9206 9.86129 14.0853 9.69663C14.25 9.53196 14.4733 9.43945 14.7062 9.43945C14.939 9.43945 15.1624 9.53196 15.327 9.69663C15.4917 9.86129 15.5842 10.0846 15.5842 10.3175Z" fill="black"/>
<path fill-rule="evenodd" clip-rule="evenodd" d="M17.2097 7.02445C17.4615 7.01493 17.7123 7.06298 17.9428 7.16494C17.8489 5.7548 17.5898 4.66778 16.7785 3.85559C16.1209 3.19882 15.2876 2.90731 14.2585 2.76858L14.2217 2.76419C14.2125 2.75722 14.2031 2.75048 14.1936 2.74399L10.9132 0.569077C10.3442 0.197731 9.67941 0 8.99994 0C8.32048 0 7.6557 0.197731 7.08669 0.569077L3.8072 2.74399C3.79736 2.75047 3.7877 2.7572 3.77822 2.76419L3.74134 2.76858C2.71228 2.90731 1.87901 3.19882 1.22136 3.85559C0.564582 4.51325 0.273071 5.34651 0.134341 6.37558C0 7.37655 0 8.6541 0 10.2679V10.3663C0 11.9801 0 13.2586 0.134341 14.2587C0.273071 15.2877 0.564582 16.121 1.22136 16.7786C1.87901 17.4354 2.71228 17.7269 3.74134 17.8657C4.74231 18 6.01987 18 7.63371 18H10.3662C11.98 18 13.2585 18 14.2585 17.8657C15.2876 17.7269 16.1209 17.4354 16.7785 16.7786C17.5898 15.9664 17.8489 14.8794 17.9428 13.4684C17.7655 13.5474 17.574 13.5949 17.3756 13.6071C17.3238 13.6098 17.2676 13.6098 17.2088 13.6098H16.6108C16.5107 14.7872 16.2851 15.4098 15.8469 15.847C15.4755 16.2184 14.9662 16.4415 14.0829 16.56C13.1812 16.6812 11.9914 16.6829 10.317 16.6829H7.68288C6.00845 16.6829 4.81958 16.6812 3.91607 16.56C3.03364 16.4415 2.52437 16.2184 2.15296 15.847C1.78155 15.4756 1.55853 14.9664 1.43999 14.083C1.31882 13.1813 1.31707 11.9915 1.31707 10.3171C1.31707 8.64269 1.31882 7.45382 1.43999 6.55031C1.55853 5.66788 1.78155 5.15861 2.15296 4.7872C2.52437 4.41579 3.03364 4.19276 3.91695 4.07423C4.81958 3.95306 6.00845 3.9513 7.68288 3.9513H10.317C11.9914 3.9513 13.1812 3.95306 14.0838 4.07423C14.9662 4.19276 15.4755 4.41579 15.8469 4.7872C16.2851 5.22446 16.5107 5.847 16.6108 7.02445H17.2097ZM7.63371 2.63424H10.3662C10.8201 2.63424 11.2469 2.63424 11.6481 2.63687L10.1853 1.66663C9.48287 1.20127 8.51702 1.20127 7.81459 1.66663L6.35089 2.63687C6.75303 2.63424 7.17976 2.63424 7.63283 2.63424H7.63371Z" fill="black"/>
<path d="M4.17025 6.14453C3.9956 6.14453 3.8281 6.21391 3.7046 6.33741C3.5811 6.46091 3.51172 6.62841 3.51172 6.80306C3.51172 6.97772 3.5811 7.14522 3.7046 7.26872C3.8281 7.39222 3.9956 7.4616 4.17025 7.4616H7.68243C7.85708 7.4616 8.02458 7.39222 8.14808 7.26872C8.27158 7.14522 8.34096 6.97772 8.34096 6.80306C8.34096 6.62841 8.27158 6.46091 8.14808 6.33741C8.02458 6.21391 7.85708 6.14453 7.68243 6.14453H4.17025Z" fill="black"/>
<path d="M15.5842 10.3175C15.5842 10.5504 15.4917 10.7737 15.327 10.9384C15.1624 11.103 14.939 11.1955 14.7062 11.1955C14.4733 11.1955 14.25 11.103 14.0853 10.9384C13.9206 10.7737 13.8281 10.5504 13.8281 10.3175C13.8281 10.0846 13.9206 9.86129 14.0853 9.69663C14.25 9.53196 14.4733 9.43945 14.7062 9.43945C14.939 9.43945 15.1624 9.53196 15.327 9.69663C15.4917 9.86129 15.5842 10.0846 15.5842 10.3175Z" fill="black"/>
</svg>
