<svg width="16" height="16" viewBox="0 0 16 16" fill="none" xmlns="http://www.w3.org/2000/svg">
<path fill-rule="evenodd" clip-rule="evenodd" d="M11.7331 3.73333V6.4H13.3331C13.7574 6.4 14.1644 6.56857 14.4644 6.86863C14.7645 7.16869 14.9331 7.57565 14.9331 8V14.4C14.9331 14.8243 14.7645 15.2313 14.4644 15.5314C14.1644 15.8314 13.7574 16 13.3331 16H2.66641C2.24206 16 1.83509 15.8314 1.53504 15.5314C1.23498 15.2313 1.06641 14.8243 1.06641 14.4V8C1.06641 7.57565 1.23498 7.16869 1.53504 6.86863C1.83509 6.56857 2.24206 6.4 2.66641 6.4H4.26641V3.73333C4.26641 2.74319 4.65974 1.7936 5.35987 1.09347C6.06001 0.393332 7.0096 0 7.99974 0C8.98988 0 9.93947 0.393332 10.6396 1.09347C11.3397 1.7936 11.7331 2.74319 11.7331 3.73333ZM5.33307 3.73333C5.33307 3.02609 5.61402 2.34781 6.11412 1.84772C6.61422 1.34762 7.2925 1.06667 7.99974 1.06667C8.70698 1.06667 9.38526 1.34762 9.88536 1.84772C10.3855 2.34781 10.6664 3.02609 10.6664 3.73333V6.4H5.33307V3.73333Z" fill="black"/>
</svg>
