<svg width="25" height="24" viewBox="0 0 25 24" fill="none" xmlns="http://www.w3.org/2000/svg">
<path d="M4.30691 14.4505C4.35259 14.2861 4.25211 14.0577 4.15619 13.8933C4.12687 13.8443 4.09485 13.7971 4.06028 13.7517C3.23987 12.5326 2.80103 11.0968 2.7997 9.62741C2.786 5.41635 6.33937 2 10.7331 2C14.5651 2 17.7622 4.60793 18.5112 8.06995C18.6233 8.58308 18.68 9.10675 18.6802 9.63197C18.6802 13.8476 15.2639 17.3553 10.8701 17.3553C10.1713 17.3553 9.23047 17.1452 8.71437 17.0036C8.19826 16.862 7.68672 16.6748 7.55427 16.6245C7.4185 16.5733 7.27461 16.547 7.12951 16.5469C6.97119 16.5463 6.81435 16.5773 6.66821 16.6382L4.07855 17.5563C4.02179 17.5803 3.96175 17.5957 3.90042 17.6019C3.80352 17.6019 3.71058 17.5634 3.64206 17.4949C3.57354 17.4264 3.53504 17.3334 3.53504 17.2365C3.53823 17.1947 3.54588 17.1534 3.55788 17.1132L4.30691 14.4505Z" stroke="#3D3D3D" stroke-width="1.5" stroke-miterlimit="10" stroke-linecap="round"/>
<path d="M20.9568 10.4043C21.5559 11.4805 21.8457 12.7013 21.7941 13.9319C21.7426 15.1625 21.3519 16.3549 20.665 17.3772C20.5595 17.5366 20.5001 17.6599 20.5184 17.7426C20.5366 17.8253 21.0633 20.5684 21.0633 20.5684C21.0759 20.6326 21.0711 20.699 21.0493 20.7607C21.0276 20.8224 20.9896 20.8771 20.9395 20.9192C20.8726 20.9725 20.7894 21.0012 20.7038 21.0005C20.6581 21.0006 20.6128 20.9913 20.5709 20.9731L18.0036 19.9682C17.8269 19.8986 17.6298 19.9019 17.4555 19.9774C16.5905 20.3144 15.6341 20.5255 14.6772 20.5255C13.3932 20.5268 12.1318 20.1882 11.0211 19.5439" stroke="#3D3D3D" stroke-width="1.5" stroke-miterlimit="10" stroke-linecap="round"/>
</svg>
